# Blender 3.3.1
# www.blender.org
mtllib MesaMoche.mtl
g Mesas_Moche_Malla
v 100.173416 11.905652 56.545940
v 100.173416 12.554717 56.545940
v 117.481735 11.905652 56.545940
v 117.481735 12.554717 56.545940
v 100.173416 11.905652 91.649109
v 100.173416 12.554717 91.649109
v 117.481735 11.905652 91.649109
v 117.481735 12.554717 91.649109
v 107.908714 12.195727 56.545940
v 107.908714 12.264642 56.545940
v 109.746437 12.264642 56.545940
v 109.746437 12.195727 56.545940
v 117.481735 12.195727 72.233978
v 117.481735 12.264642 72.233978
v 117.481735 12.264642 75.961082
v 117.481735 12.195727 75.961082
v 109.746437 12.195727 91.649109
v 109.746437 12.264642 91.649109
v 107.908714 12.264642 91.649109
v 107.908714 12.195727 91.649109
v 100.173416 12.195727 75.961075
v 100.173416 12.264642 75.961075
v 100.173416 12.264642 72.233971
v 100.173416 12.195727 72.233971
v 109.746437 11.397770 72.233971
v 109.746437 11.397770 75.961082
v 107.908714 11.397770 75.961082
v 107.908714 11.397770 72.233971
v 109.746437 12.554717 75.961082
v 109.746437 12.554717 72.233971
v 107.908714 12.554717 72.233971
v 107.908714 12.554717 75.961082
v 109.746437 2.845941 75.961082
v 109.746437 2.845941 72.233971
v 107.908714 2.845941 72.233971
v 107.908714 2.845941 75.961082
v 186.907349 11.905652 87.311951
v 186.907349 12.554717 87.311951
v 187.114227 11.905652 100.445404
v 187.114227 12.554717 100.445404
v 149.485580 11.905652 86.598228
v 149.485580 12.554717 86.598228
v 149.692490 11.905652 99.731689
v 149.692490 12.554717 99.731689
v 186.999817 12.195727 93.181450
v 186.999817 12.264642 93.181450
v 187.021759 12.264642 94.575905
v 187.021759 12.195727 94.575905
v 170.389999 12.195727 100.126434
v 170.389999 12.264642 100.126434
v 166.416718 12.264642 100.050659
v 166.416718 12.195727 100.050659
v 149.600006 12.195727 93.862190
v 149.600006 12.264642 93.862190
v 149.578033 12.264642 92.467735
v 149.578033 12.195727 92.467735
v 166.209808 12.195727 86.917198
v 166.209808 12.264642 86.917198
v 170.183105 12.264642 86.992981
v 170.183105 12.195727 86.992981
v 170.297531 11.397770 94.256935
v 166.324249 11.397770 94.181160
v 166.302277 11.397770 92.786705
v 170.275574 11.397770 92.862480
v 166.324249 12.554717 94.181160
v 170.297531 12.554717 94.256935
v 170.275574 12.554717 92.862480
v 166.302277 12.554717 92.786705
v 166.324249 2.845941 94.181160
v 170.297531 2.845941 94.256935
v 170.275574 2.845941 92.862480
v 166.302277 2.845941 92.786705
vn -0.0000 -0.0000 -1.0000
vn 1.0000 -0.0000 -0.0000
vn -0.0000 -0.0000 1.0000
vn -1.0000 -0.0000 -0.0000
vn -0.0000 1.0000 -0.0000
vn 0.0655 -0.9979 -0.0000
vn -0.0000 -0.9995 0.0324
vn -0.0655 -0.9979 -0.0000
vn -0.0000 -0.9995 -0.0324
vn 0.9999 -0.0000 -0.0157
vn -0.0191 -0.0000 0.9998
vn -0.9999 -0.0000 0.0158
vn 0.0191 -0.0000 -0.9998
vn 0.9999 -0.0000 -0.0158
vn 0.9999 0.0002 -0.0157
vn -0.0191 -0.0001 0.9998
vn -0.9999 -0.0000 0.0157
vn -0.9999 -0.0001 0.0158
vn -0.0016 -0.9963 0.0862
vn -0.0304 -0.9995 0.0005
vn 0.0016 -0.9963 -0.0862
vn 0.0304 -0.9995 -0.0005
vn -0.0000 -1.0000 -0.0000
vn 0.9999 -0.0002 -0.0157
vn -0.0191 0.0001 0.9998
vn -0.9999 0.0001 0.0158
vt 0.375000 0.000000
vt 0.375000 1.000000
vt 0.125000 0.750000
vt 0.625000 0.000000
vt 0.625000 1.000000
vt 0.875000 0.750000
vt 0.375000 0.250000
vt 0.125000 0.500000
vt 0.625000 0.250000
vt 0.875000 0.500000
vt 0.375000 0.750000
vt 0.625000 0.750000
vt 0.375000 0.500000
vt 0.625000 0.500000
vt 0.486728 0.111728
vt 0.513272 0.111728
vt 0.513272 0.138272
vt 0.486728 0.138272
vt 0.486728 0.361728
vt 0.513272 0.361728
vt 0.513272 0.388272
vt 0.486728 0.388272
vt 0.486728 0.611728
vt 0.513272 0.611728
vt 0.513272 0.638272
vt 0.486728 0.638272
vt 0.486728 0.861728
vt 0.513272 0.861728
vt 0.513272 0.888272
vt 0.486728 0.888272
vt 0.236728 0.611728
vt 0.263272 0.611728
vt 0.263272 0.638272
vt 0.236728 0.638272
vt 0.736728 0.611728
vt 0.763272 0.611728
vt 0.763272 0.638272
vt 0.736728 0.638272
vt 0.263272 0.611728
vt 0.236728 0.611728
vt 0.236728 0.638272
vt 0.263272 0.638272
vt 0.375000 0.000000
vt 0.375000 1.000000
vt 0.125000 0.750000
vt 0.625000 0.000000
vt 0.625000 1.000000
vt 0.875000 0.750000
vt 0.375000 0.250000
vt 0.125000 0.500000
vt 0.625000 0.250000
vt 0.875000 0.500000
vt 0.375000 0.750000
vt 0.625000 0.750000
vt 0.375000 0.500000
vt 0.625000 0.500000
vt 0.486728 0.111728
vt 0.513272 0.111728
vt 0.513272 0.138272
vt 0.486728 0.138272
vt 0.486728 0.361728
vt 0.513272 0.361728
vt 0.513272 0.388272
vt 0.486728 0.388272
vt 0.486728 0.611728
vt 0.513272 0.611728
vt 0.513272 0.638272
vt 0.486728 0.638272
vt 0.486728 0.861728
vt 0.513272 0.861728
vt 0.513272 0.888272
vt 0.486728 0.888272
vt 0.236728 0.611728
vt 0.263272 0.611728
vt 0.263272 0.638272
vt 0.236728 0.638272
vt 0.736728 0.611728
vt 0.763272 0.611728
vt 0.763272 0.638272
vt 0.736728 0.638272
vt 0.263272 0.611728
vt 0.236728 0.611728
vt 0.236728 0.638272
vt 0.263272 0.638272
s 0
g off
g Mesas_Moche_Material.009
usemtl Material.009
f 10/16/1 12/18/1 9/15/1
f 14/20/2 16/22/2 13/19/2
f 18/24/3 20/26/3 17/23/3
f 22/28/4 24/30/4 21/27/4
f 28/34/4 36/42/4 27/33/4
f 30/36/5 32/38/5 29/35/5
f 1/1/1 10/16/1 9/15/1
f 2/4/1 11/17/1 10/16/1
f 4/9/1 12/18/1 11/17/1
f 3/7/1 9/15/1 12/18/1
f 3/7/2 14/20/2 13/19/2
f 4/9/2 15/21/2 14/20/2
f 8/14/2 16/22/2 15/21/2
f 7/13/2 13/19/2 16/22/2
f 7/13/3 18/24/3 17/23/3
f 8/14/3 19/25/3 18/24/3
f 6/12/3 20/26/3 19/25/3
f 5/11/3 17/23/3 20/26/3
f 5/11/4 22/28/4 21/27/4
f 6/12/4 23/29/4 22/28/4
f 2/5/4 24/30/4 23/29/4
f 1/2/4 21/27/4 24/30/4
f 3/8/6 26/32/6 25/31/6
f 7/13/7 27/33/7 26/32/7
f 5/11/8 28/34/8 27/33/8
f 1/3/9 25/31/9 28/34/9
f 8/14/5 30/36/5 29/35/5
f 4/10/5 31/37/5 30/36/5
f 2/6/5 32/38/5 31/37/5
f 6/12/5 29/35/5 32/38/5
f 25/31/1 35/41/1 28/34/1
f 27/33/3 33/39/3 26/32/3
f 26/32/2 34/40/2 25/31/2
f 46/58/10 48/60/10 45/57/10
f 50/62/11 52/64/11 49/61/11
f 54/66/12 56/68/12 53/65/12
f 58/70/13 60/72/13 57/69/13
f 64/76/13 72/84/13 63/75/13
f 65/77/5 67/79/5 68/80/5
f 38/46/14 45/57/14 37/43/14
f 40/51/14 46/58/14 38/46/14
f 39/49/14 47/59/14 40/51/14
f 39/49/15 45/57/15 48/60/15
f 40/51/11 49/61/11 39/49/11
f 44/56/11 50/62/11 40/51/11
f 43/55/11 51/63/11 44/56/11
f 43/55/16 49/61/16 52/64/16
f 44/56/12 53/65/12 43/55/12
f 42/54/12 54/66/12 44/56/12
f 41/53/17 55/67/17 42/54/17
f 43/55/18 56/68/18 41/53/18
f 42/54/13 57/69/13 41/53/13
f 42/54/13 59/71/13 58/70/13
f 37/44/13 59/71/13 38/47/13
f 41/53/13 60/72/13 37/44/13
f 43/55/19 61/73/19 39/50/19
f 43/55/20 63/75/20 62/74/20
f 37/45/21 63/75/21 41/53/21
f 37/45/22 61/73/22 64/76/22
f 44/56/5 66/78/5 65/77/5
f 38/48/5 66/78/5 40/52/5
f 38/48/5 68/80/5 67/79/5
f 44/56/5 68/80/5 42/54/5
f 69/81/23 71/83/23 70/82/23
f 61/73/10 71/83/10 64/76/10
f 63/75/12 69/81/12 62/74/12
f 62/74/11 70/82/11 61/73/11
f 10/16/1 11/17/1 12/18/1
f 14/20/2 15/21/2 16/22/2
f 18/24/3 19/25/3 20/26/3
f 22/28/4 23/29/4 24/30/4
f 28/34/4 35/41/4 36/42/4
f 30/36/5 31/37/5 32/38/5
f 1/1/1 2/4/1 10/16/1
f 2/4/1 4/9/1 11/17/1
f 4/9/1 3/7/1 12/18/1
f 3/7/1 1/1/1 9/15/1
f 3/7/2 4/9/2 14/20/2
f 4/9/2 8/14/2 15/21/2
f 8/14/2 7/13/2 16/22/2
f 7/13/2 3/7/2 13/19/2
f 7/13/3 8/14/3 18/24/3
f 8/14/3 6/12/3 19/25/3
f 6/12/3 5/11/3 20/26/3
f 5/11/3 7/13/3 17/23/3
f 5/11/4 6/12/4 22/28/4
f 6/12/4 2/5/4 23/29/4
f 2/5/4 1/2/4 24/30/4
f 1/2/4 5/11/4 21/27/4
f 3/8/6 7/13/6 26/32/6
f 7/13/7 5/11/7 27/33/7
f 5/11/8 1/3/8 28/34/8
f 1/3/9 3/8/9 25/31/9
f 8/14/5 4/10/5 30/36/5
f 4/10/5 2/6/5 31/37/5
f 2/6/5 6/12/5 32/38/5
f 6/12/5 8/14/5 29/35/5
f 25/31/1 34/40/1 35/41/1
f 27/33/3 36/42/3 33/39/3
f 26/32/2 33/39/2 34/40/2
f 46/58/10 47/59/10 48/60/10
f 50/62/11 51/63/11 52/64/11
f 54/66/12 55/67/12 56/68/12
f 58/70/13 59/71/13 60/72/13
f 64/76/13 71/83/13 72/84/13
f 65/77/5 66/78/5 67/79/5
f 38/46/14 46/58/14 45/57/14
f 40/51/24 47/59/24 46/58/24
f 39/49/14 48/60/14 47/59/14
f 39/49/14 37/43/14 45/57/14
f 40/51/11 50/62/11 49/61/11
f 44/56/25 51/63/25 50/62/25
f 43/55/11 52/64/11 51/63/11
f 43/55/11 39/49/11 49/61/11
f 44/56/12 54/66/12 53/65/12
f 42/54/26 55/67/26 54/66/26
f 41/53/17 56/68/17 55/67/17
f 43/55/12 53/65/12 56/68/12
f 42/54/13 58/70/13 57/69/13
f 42/54/13 38/47/13 59/71/13
f 37/44/13 60/72/13 59/71/13
f 41/53/13 57/69/13 60/72/13
f 43/55/19 62/74/19 61/73/19
f 43/55/20 41/53/20 63/75/20
f 37/45/21 64/76/21 63/75/21
f 37/45/22 39/50/22 61/73/22
f 44/56/5 40/52/5 66/78/5
f 38/48/5 67/79/5 66/78/5
f 38/48/5 42/54/5 68/80/5
f 44/56/5 65/77/5 68/80/5
f 69/81/23 72/84/23 71/83/23
f 61/73/10 70/82/10 71/83/10
f 63/75/12 72/84/12 69/81/12
f 62/74/11 69/81/11 70/82/11
