# Blender 3.3.1
# www.blender.org
mtllib MesaNazca.mtl
g Mesas_Nazca_Malla
v 109.746437 2.845941 75.961082
v 109.746437 2.845941 72.233971
v 107.908714 2.845941 72.233971
v 107.908714 2.845941 75.961082
v 313.678650 10.436857 -66.623466
v 313.678650 11.085923 -66.623466
v 313.678650 10.436857 -32.234222
v 313.678650 11.085923 -32.234222
v 260.208984 10.436857 -66.623512
v 260.208984 11.085923 -66.623512
v 260.208984 10.436857 -32.234222
v 260.208984 11.085923 -32.234222
v 313.678650 10.726933 -51.254539
v 313.678650 10.795848 -51.254539
v 313.678650 10.795848 -47.603188
v 313.678650 10.726933 -47.603188
v 289.782410 10.726933 -32.234222
v 289.782410 10.795848 -32.234222
v 284.105255 10.795848 -32.234222
v 284.105255 10.726933 -32.234222
v 260.208984 10.726933 -47.603188
v 260.208984 10.795848 -47.603188
v 260.208984 10.795848 -51.254539
v 260.208984 10.726933 -51.254539
v 284.105255 10.726933 -66.623497
v 284.105255 10.795848 -66.623497
v 289.782410 10.795848 -66.623497
v 289.782410 10.726933 -66.623497
v 289.782410 9.928975 -47.603188
v 284.105255 9.928975 -47.603188
v 284.105255 9.928975 -51.254539
v 289.782410 9.928975 -51.254539
v 284.105255 11.085923 -47.603188
v 289.782410 11.085923 -47.603188
v 289.782410 11.085923 -51.254539
v 284.105255 11.085923 -51.254539
v 284.105255 1.377147 -47.603188
v 289.782410 1.377147 -47.603188
v 289.782410 1.377147 -51.254539
v 284.105255 1.377147 -51.254539
v 313.678650 10.436857 45.850449
v 313.678650 11.085923 45.850449
v 313.678650 10.436857 80.239708
v 313.678650 11.085923 80.239708
v 260.208984 10.436857 45.850410
v 260.208984 11.085923 45.850410
v 260.208984 10.436857 80.239700
v 260.208984 11.085923 80.239700
v 313.678650 10.726933 61.219383
v 313.678650 10.795848 61.219383
v 313.678650 10.795848 64.870735
v 313.678650 10.726933 64.870735
v 289.782410 10.726933 80.239708
v 289.782410 10.795848 80.239708
v 284.105255 10.795848 80.239708
v 284.105255 10.726933 80.239708
v 260.208984 10.726933 64.870735
v 260.208984 10.795848 64.870735
v 260.208984 10.795848 61.219383
v 260.208984 10.726933 61.219383
v 284.105255 10.726933 45.850410
v 284.105255 10.795848 45.850410
v 289.782410 10.795848 45.850410
v 289.782410 10.726933 45.850410
v 289.782410 9.928975 64.870735
v 284.105255 9.928975 64.870735
v 284.105255 9.928975 61.219383
v 289.782410 9.928975 61.219383
v 284.105255 11.085923 64.870735
v 289.782410 11.085923 64.870735
v 289.782410 11.085923 61.219383
v 284.105255 11.085923 61.219383
v 284.105255 1.377147 64.870735
v 289.782410 1.377147 64.870735
v 289.782410 1.377147 61.219383
v 284.105255 1.377147 61.219383
v 410.613098 10.436857 84.928818
v 410.613098 11.085922 84.928818
v 344.302124 10.436857 84.928825
v 344.302124 11.085922 84.928825
v 410.613129 10.436857 -69.456200
v 410.613129 11.085922 -69.456200
v 344.302124 10.436857 -69.456200
v 344.302124 11.085922 -69.456200
v 380.978027 10.726933 84.928825
v 380.978027 10.795848 84.928825
v 373.937286 10.795848 84.928825
v 373.937286 10.726933 84.928825
v 344.302124 10.726933 15.932259
v 344.302124 10.795848 15.932259
v 344.302124 10.795848 -0.459587
v 344.302124 10.726933 -0.459587
v 373.937317 10.726933 -69.456200
v 373.937317 10.795848 -69.456200
v 380.978027 10.795848 -69.456200
v 380.978027 10.726933 -69.456200
v 410.613129 10.726933 -0.459579
v 410.613129 10.795848 -0.459579
v 410.613129 10.795848 15.932354
v 410.613129 10.726933 15.932354
v 373.937317 9.928975 15.932354
v 373.937317 9.928975 -0.459579
v 380.978027 9.928975 -0.459579
v 380.978027 9.928975 15.932354
v 373.937317 11.085922 -0.459579
v 373.937317 11.085922 15.932354
v 380.978027 11.085922 15.932354
v 380.978027 11.085922 -0.459579
v 373.937317 1.377147 -0.459579
v 373.937317 1.377147 15.932354
v 380.978027 1.377147 15.932354
v 380.978027 1.377147 -0.459579
vn -0.0000 -1.0000 -0.0000
vn 1.0000 -0.0000 -0.0000
vn -0.0000 -0.0000 1.0000
vn -1.0000 -0.0000 -0.0000
vn -0.0000 -0.0000 -1.0000
vn -0.0000 1.0000 -0.0000
vn -0.0000 0.0001 -1.0000
vn -0.0000 -0.0001 -1.0000
vn -0.0000 -0.9995 0.0330
vn -0.0212 -0.9998 -0.0000
vn -0.0000 -0.9995 -0.0330
vn 0.0212 -0.9998 -0.0000
vn -1.0000 0.0001 -0.0000
vn -1.0000 -0.0001 -0.0000
vn 1.0000 -0.0002 -0.0000
vn -0.0171 -0.9999 -0.0000
vn -0.0000 -1.0000 -0.0074
vn 0.0171 -0.9999 -0.0000
vn -0.0000 -1.0000 0.0074
vn -1.0000 -0.0003 -0.0000
vn 1.0000 0.0002 -0.0000
vt 0.263272 0.611728
vt 0.236728 0.611728
vt 0.236728 0.638272
vt 0.263272 0.638272
vt 0.375000 0.000000
vt 0.375000 1.000000
vt 0.125000 0.750000
vt 0.625000 0.000000
vt 0.625000 1.000000
vt 0.875000 0.750000
vt 0.375000 0.250000
vt 0.125000 0.500000
vt 0.625000 0.250000
vt 0.875000 0.500000
vt 0.375000 0.750000
vt 0.625000 0.750000
vt 0.375000 0.500000
vt 0.625000 0.500000
vt 0.486728 0.111728
vt 0.513272 0.111728
vt 0.513272 0.138272
vt 0.486728 0.138272
vt 0.486728 0.361728
vt 0.513272 0.361728
vt 0.513272 0.388272
vt 0.486728 0.388272
vt 0.486728 0.611728
vt 0.513272 0.611728
vt 0.513272 0.638272
vt 0.486728 0.638272
vt 0.486728 0.861728
vt 0.513272 0.861728
vt 0.513272 0.888272
vt 0.486728 0.888272
vt 0.236728 0.611728
vt 0.263272 0.611728
vt 0.263272 0.638272
vt 0.236728 0.638272
vt 0.736728 0.611728
vt 0.763272 0.611728
vt 0.763272 0.638272
vt 0.736728 0.638272
vt 0.263272 0.611728
vt 0.236728 0.611728
vt 0.236728 0.638272
vt 0.263272 0.638272
vt 0.375000 0.000000
vt 0.375000 1.000000
vt 0.125000 0.750000
vt 0.625000 0.000000
vt 0.625000 1.000000
vt 0.875000 0.750000
vt 0.375000 0.250000
vt 0.125000 0.500000
vt 0.625000 0.250000
vt 0.875000 0.500000
vt 0.375000 0.750000
vt 0.625000 0.750000
vt 0.375000 0.500000
vt 0.625000 0.500000
vt 0.486728 0.111728
vt 0.513272 0.111728
vt 0.513272 0.138272
vt 0.486728 0.138272
vt 0.486728 0.361728
vt 0.513272 0.361728
vt 0.513272 0.388272
vt 0.486728 0.388272
vt 0.486728 0.611728
vt 0.513272 0.611728
vt 0.513272 0.638272
vt 0.486728 0.638272
vt 0.486728 0.861728
vt 0.513272 0.861728
vt 0.513272 0.888272
vt 0.486728 0.888272
vt 0.236728 0.611728
vt 0.263272 0.611728
vt 0.263272 0.638272
vt 0.236728 0.638272
vt 0.736728 0.611728
vt 0.763272 0.611728
vt 0.763272 0.638272
vt 0.736728 0.638272
vt 0.263272 0.611728
vt 0.236728 0.611728
vt 0.236728 0.638272
vt 0.263272 0.638272
vt 0.375000 0.000000
vt 0.375000 1.000000
vt 0.125000 0.750000
vt 0.625000 0.000000
vt 0.625000 1.000000
vt 0.875000 0.750000
vt 0.375000 0.250000
vt 0.125000 0.500000
vt 0.625000 0.250000
vt 0.875000 0.500000
vt 0.375000 0.750000
vt 0.625000 0.750000
vt 0.375000 0.500000
vt 0.625000 0.500000
vt 0.486728 0.111728
vt 0.513272 0.111728
vt 0.513272 0.138272
vt 0.486728 0.138272
vt 0.486728 0.361728
vt 0.513272 0.361728
vt 0.513272 0.388272
vt 0.486728 0.388272
vt 0.486728 0.611728
vt 0.513272 0.611728
vt 0.513272 0.638272
vt 0.486728 0.638272
vt 0.486728 0.861728
vt 0.513272 0.861728
vt 0.513272 0.888272
vt 0.486728 0.888272
vt 0.236728 0.611728
vt 0.263272 0.611728
vt 0.263272 0.638272
vt 0.236728 0.638272
vt 0.736728 0.611728
vt 0.763272 0.611728
vt 0.763272 0.638272
vt 0.736728 0.638272
vt 0.263272 0.611728
vt 0.236728 0.611728
vt 0.236728 0.638272
vt 0.263272 0.638272
s 0
g off
g Mesas_Nazca_Material.009
usemtl Material.009
f 1/1/1 3/3/1 2/2/1
f 14/20/2 16/22/2 13/19/2
f 18/24/3 20/26/3 17/23/3
f 22/28/4 24/30/4 21/27/4
f 26/32/5 28/34/5 25/31/5
f 32/38/5 40/46/5 31/37/5
f 34/40/6 36/42/6 33/39/6
f 6/8/2 13/19/2 5/5/2
f 6/8/2 15/21/2 14/20/2
f 7/11/2 15/21/2 8/13/2
f 5/5/2 16/22/2 7/11/2
f 8/13/3 17/23/3 7/11/3
f 12/18/3 18/24/3 8/13/3
f 11/17/3 19/25/3 12/18/3
f 7/11/3 20/26/3 11/17/3
f 12/18/4 21/27/4 11/17/4
f 10/16/4 22/28/4 12/18/4
f 9/15/4 23/29/4 10/16/4
f 11/17/4 24/30/4 9/15/4
f 10/16/5 25/31/5 9/15/5
f 6/9/7 26/32/7 10/16/7
f 5/6/5 27/33/5 6/9/5
f 9/15/8 28/34/8 5/6/8
f 7/12/9 30/36/9 29/35/9
f 9/15/10 30/36/10 11/17/10
f 5/7/11 31/37/11 9/15/11
f 7/12/12 32/38/12 5/7/12
f 8/14/6 33/39/6 12/18/6
f 6/10/6 34/40/6 8/14/6
f 6/10/6 36/42/6 35/41/6
f 12/18/6 36/42/6 10/16/6
f 37/43/1 39/45/1 38/44/1
f 29/35/2 39/45/2 32/38/2
f 31/37/4 37/43/4 30/36/4
f 30/36/3 38/44/3 29/35/3
f 50/62/2 52/64/2 49/61/2
f 54/66/3 56/68/3 53/65/3
f 58/70/4 60/72/4 57/69/4
f 62/74/5 64/76/5 61/73/5
f 68/80/5 76/88/5 67/79/5
f 70/82/6 72/84/6 69/81/6
f 42/50/2 49/61/2 41/47/2
f 42/50/2 51/63/2 50/62/2
f 43/53/2 51/63/2 44/55/2
f 41/47/2 52/64/2 43/53/2
f 44/55/3 53/65/3 43/53/3
f 48/60/3 54/66/3 44/55/3
f 47/59/3 55/67/3 48/60/3
f 43/53/3 56/68/3 47/59/3
f 48/60/4 57/69/4 47/59/4
f 46/58/4 58/70/4 48/60/4
f 45/57/4 59/71/4 46/58/4
f 47/59/13 60/72/13 45/57/13
f 46/58/5 61/73/5 45/57/5
f 42/51/7 62/74/7 46/58/7
f 41/48/5 63/75/5 42/51/5
f 45/57/8 64/76/8 41/48/8
f 43/54/9 66/78/9 65/77/9
f 45/57/10 66/78/10 47/59/10
f 41/49/11 67/79/11 45/57/11
f 43/54/12 68/80/12 41/49/12
f 44/56/6 69/81/6 48/60/6
f 42/52/6 70/82/6 44/56/6
f 46/58/6 71/83/6 42/52/6
f 48/60/6 72/84/6 46/58/6
f 73/85/1 75/87/1 74/86/1
f 65/77/2 75/87/2 68/80/2
f 67/79/4 73/85/4 66/78/4
f 66/78/3 74/86/3 65/77/3
f 86/104/3 88/106/3 85/103/3
f 90/108/4 92/110/4 89/107/4
f 94/112/5 96/114/5 93/111/5
f 98/116/2 100/118/2 97/115/2
f 104/122/2 112/130/2 103/121/2
f 106/124/6 108/126/6 105/123/6
f 77/89/3 86/104/3 85/103/3
f 78/92/3 87/105/3 86/104/3
f 80/97/3 88/106/3 87/105/3
f 77/89/3 88/106/3 79/95/3
f 80/97/4 89/107/4 79/95/4
f 84/102/14 90/108/14 80/97/14
f 83/101/4 91/109/4 84/102/4
f 79/95/13 92/110/13 83/101/13
f 84/102/5 93/111/5 83/101/5
f 82/100/5 94/112/5 84/102/5
f 82/100/5 96/114/5 95/113/5
f 81/99/5 93/111/5 96/114/5
f 82/100/2 97/115/2 81/99/2
f 78/93/2 98/116/2 82/100/2
f 77/90/2 99/117/2 78/93/2
f 77/90/15 97/115/15 100/118/15
f 83/101/16 101/119/16 79/96/16
f 81/99/17 102/120/17 83/101/17
f 77/91/18 103/121/18 81/99/18
f 77/91/19 101/119/19 104/122/19
f 80/98/6 105/123/6 84/102/6
f 78/94/6 106/124/6 80/98/6
f 78/94/6 108/126/6 107/125/6
f 82/100/6 105/123/6 108/126/6
f 109/127/1 111/129/1 110/128/1
f 101/119/3 111/129/3 104/122/3
f 103/121/5 109/127/5 102/120/5
f 102/120/4 110/128/4 101/119/4
f 1/1/1 4/4/1 3/3/1
f 14/20/2 15/21/2 16/22/2
f 18/24/3 19/25/3 20/26/3
f 22/28/4 23/29/4 24/30/4
f 26/32/5 27/33/5 28/34/5
f 32/38/5 39/45/5 40/46/5
f 34/40/6 35/41/6 36/42/6
f 6/8/2 14/20/2 13/19/2
f 6/8/2 8/13/2 15/21/2
f 7/11/2 16/22/2 15/21/2
f 5/5/2 13/19/2 16/22/2
f 8/13/3 18/24/3 17/23/3
f 12/18/3 19/25/3 18/24/3
f 11/17/3 20/26/3 19/25/3
f 7/11/3 17/23/3 20/26/3
f 12/18/4 22/28/4 21/27/4
f 10/16/14 23/29/14 22/28/14
f 9/15/4 24/30/4 23/29/4
f 11/17/13 21/27/13 24/30/13
f 10/16/5 26/32/5 25/31/5
f 6/9/7 27/33/7 26/32/7
f 5/6/5 28/34/5 27/33/5
f 9/15/5 25/31/5 28/34/5
f 7/12/9 11/17/9 30/36/9
f 9/15/10 31/37/10 30/36/10
f 5/7/11 32/38/11 31/37/11
f 7/12/12 29/35/12 32/38/12
f 8/14/6 34/40/6 33/39/6
f 6/10/6 35/41/6 34/40/6
f 6/10/6 10/16/6 36/42/6
f 12/18/6 33/39/6 36/42/6
f 37/43/1 40/46/1 39/45/1
f 29/35/2 38/44/2 39/45/2
f 31/37/4 40/46/4 37/43/4
f 30/36/3 37/43/3 38/44/3
f 50/62/2 51/63/2 52/64/2
f 54/66/3 55/67/3 56/68/3
f 58/70/4 59/71/4 60/72/4
f 62/74/5 63/75/5 64/76/5
f 68/80/5 75/87/5 76/88/5
f 70/82/6 71/83/6 72/84/6
f 42/50/2 50/62/2 49/61/2
f 42/50/2 44/55/2 51/63/2
f 43/53/2 52/64/2 51/63/2
f 41/47/2 49/61/2 52/64/2
f 44/55/3 54/66/3 53/65/3
f 48/60/3 55/67/3 54/66/3
f 47/59/3 56/68/3 55/67/3
f 43/53/3 53/65/3 56/68/3
f 48/60/4 58/70/4 57/69/4
f 46/58/20 59/71/20 58/70/20
f 45/57/4 60/72/4 59/71/4
f 47/59/13 57/69/13 60/72/13
f 46/58/5 62/74/5 61/73/5
f 42/51/7 63/75/7 62/74/7
f 41/48/5 64/76/5 63/75/5
f 45/57/5 61/73/5 64/76/5
f 43/54/9 47/59/9 66/78/9
f 45/57/10 67/79/10 66/78/10
f 41/49/11 68/80/11 67/79/11
f 43/54/12 65/77/12 68/80/12
f 44/56/6 70/82/6 69/81/6
f 42/52/6 71/83/6 70/82/6
f 46/58/6 72/84/6 71/83/6
f 48/60/6 69/81/6 72/84/6
f 73/85/1 76/88/1 75/87/1
f 65/77/2 74/86/2 75/87/2
f 67/79/4 76/88/4 73/85/4
f 66/78/3 73/85/3 74/86/3
f 86/104/3 87/105/3 88/106/3
f 90/108/4 91/109/4 92/110/4
f 94/112/5 95/113/5 96/114/5
f 98/116/2 99/117/2 100/118/2
f 104/122/2 111/129/2 112/130/2
f 106/124/6 107/125/6 108/126/6
f 77/89/3 78/92/3 86/104/3
f 78/92/3 80/97/3 87/105/3
f 80/97/3 79/95/3 88/106/3
f 77/89/3 85/103/3 88/106/3
f 80/97/4 90/108/4 89/107/4
f 84/102/4 91/109/4 90/108/4
f 83/101/4 92/110/4 91/109/4
f 79/95/4 89/107/4 92/110/4
f 84/102/5 94/112/5 93/111/5
f 82/100/5 95/113/5 94/112/5
f 82/100/5 81/99/5 96/114/5
f 81/99/5 83/101/5 93/111/5
f 82/100/2 98/116/2 97/115/2
f 78/93/21 99/117/21 98/116/21
f 77/90/2 100/118/2 99/117/2
f 77/90/2 81/99/2 97/115/2
f 83/101/16 102/120/16 101/119/16
f 81/99/17 103/121/17 102/120/17
f 77/91/18 104/122/18 103/121/18
f 77/91/19 79/96/19 101/119/19
f 80/98/6 106/124/6 105/123/6
f 78/94/6 107/125/6 106/124/6
f 78/94/6 82/100/6 108/126/6
f 82/100/6 84/102/6 105/123/6
f 109/127/1 112/130/1 111/129/1
f 101/119/3 110/128/3 111/129/3
f 103/121/5 112/130/5 109/127/5
f 102/120/4 109/127/4 110/128/4
