# Blender 3.3.1
# www.blender.org
mtllib CuadrosTercearios.mtl
g Cuadro5_Malla
v 390.443939 46.790131 18.320673
v 390.443939 13.429438 19.064842
v 390.443939 46.240021 -6.340992
v 396.577789 21.559216 13.599009
v 390.854980 31.950148 5.245683
v 390.854980 34.728249 6.221251
v 397.925995 22.065804 16.604771
v 396.302094 21.392193 13.733171
v 397.650299 21.898987 16.738926
v 390.579254 34.561226 6.355412
v 390.579254 31.783333 5.379839
v 396.577789 27.766792 15.779103
v 390.854980 38.157932 7.425773
v 390.579254 37.991119 7.559929
v 396.302094 27.599979 15.913260
v 390.854980 35.380039 6.450199
v 390.579254 35.213017 6.584360
v 390.854980 35.054146 6.335781
v 397.925995 22.717594 16.833717
v 398.049469 22.172544 16.901169
v 397.650299 22.550781 16.967873
v 390.579254 34.887123 6.469942
v 397.773743 22.005730 17.035212
v 392.347168 11.369402 20.232338
v 388.972046 11.369402 20.232338
v 388.972046 10.769274 -6.671298
v 392.347168 10.769274 -6.671298
v 392.347168 48.900185 19.395149
v 388.972046 48.900185 19.395149
v 392.347168 48.300056 -7.508487
v 388.972046 48.300056 -7.508487
v 388.702148 11.781408 19.998837
v 388.702148 11.191282 -6.456404
v 388.702148 48.478172 19.180254
v 388.702148 47.888046 -7.274987
v 388.893555 12.290594 19.614231
v 388.893555 11.717113 -6.094883
v 388.893555 47.952343 18.818733
v 388.893555 47.378860 -6.890381
v 389.005676 14.307847 18.090366
v 389.005676 13.800308 -4.662486
v 389.005676 45.869148 17.386337
v 389.005676 45.361610 -5.366516
v 389.262329 14.745847 17.759609
v 389.262329 14.252621 -4.351590
v 389.262329 45.416836 17.075439
v 389.262329 44.923611 -5.035760
v 389.605347 14.902429 18.008352
v 389.605347 14.397956 -4.607068
v 389.605347 45.271500 17.330917
v 389.605347 44.767029 -5.284502
v 389.884521 14.902429 18.008352
v 389.884521 14.397956 -4.607068
v 389.884521 45.271500 17.330917
v 389.884521 44.767029 -5.284502
v 392.347168 12.879324 -5.596823
v 392.347168 13.429438 19.064842
v 392.347168 46.240021 -6.340992
v 392.347168 46.790131 18.320673
v 390.443939 12.879324 -5.596823
v 390.443939 13.429438 19.064842
v 390.443939 46.240021 -6.340992
v 390.443939 46.790131 18.320673
v 389.262329 45.869148 17.386337
v 389.884521 14.397956 -4.607068
v 389.884521 14.902429 18.008352
v 390.163727 19.264668 14.605971
v 390.163727 18.907574 -1.402589
v 389.884521 45.271500 17.330917
v 390.163727 40.761883 14.126439
v 389.884521 44.767029 -5.284502
v 390.163727 40.404789 -1.882121
v 390.442902 19.264668 14.605971
v 390.442902 18.907574 -1.402589
v 390.442902 40.761883 14.126439
v 390.442902 40.404789 -1.882121
v 390.430908 18.907574 -1.402589
v 390.430908 19.264668 14.605971
v 390.430908 40.761883 14.126439
v 390.430908 40.404789 -1.882121
vn -0.0000 -0.9998 0.0223
vn -0.0000 0.0223 0.9998
vn -0.0000 0.9998 -0.0223
vn -0.0000 -0.0223 -0.9998
vn -0.8396 -0.5431 0.0121
vn -0.6391 0.0172 0.7689
vn -0.8396 0.5431 -0.0121
vn -0.6391 -0.0172 -0.7689
vn -0.9379 0.3467 -0.0077
vn -0.8898 -0.0102 -0.4563
vn -0.8900 -0.0102 -0.4558
vn -0.9379 -0.3467 0.0077
vn -0.8898 0.0102 0.4563
vn -0.8900 0.0102 0.4558
vn -0.9985 0.0546 -0.0012
vn -0.9971 -0.0017 -0.0756
vn -0.9985 -0.0546 0.0012
vn -0.9971 0.0017 0.0756
vn -0.8664 0.4993 -0.0111
vn -0.7809 -0.0139 -0.6244
vn -0.4029 0.9150 -0.0204
vn 0.5923 -0.0180 -0.8055
vn 1.0000 -0.0000 -0.0000
vn -0.7809 0.0139 0.6244
vn 0.5923 0.0180 0.8055
vt 0.000000 0.000000
vt 0.000000 0.000000
vt 0.000000 0.000000
vt 0.000000 0.000000
vt 0.000000 0.000000
vt 0.000000 0.000000
vt 0.000000 0.000000
vt 0.000000 0.000000
vt 0.000000 0.000000
vt 0.000000 0.000000
vt 0.000000 0.000000
vt 0.000000 0.000000
vt 0.000000 0.000000
vt 0.000000 0.000000
vt 0.000000 0.000000
vt 0.000000 0.000000
vt 0.000000 0.000000
vt 0.000000 0.000000
vt 0.000000 0.000000
vt 0.000000 0.000000
vt 0.000000 0.000000
vt 0.000000 0.000000
vt 0.000000 0.000000
vt 0.000000 0.000000
vt 0.000000 0.000000
vt 0.000000 0.000000
vt 0.000000 0.000000
vt 0.000000 0.000000
vt 0.000000 0.000000
vt 0.000000 0.000000
vt 0.000000 0.000000
vt 0.000000 0.000000
vt 0.000000 0.000000
vt 0.000000 0.000000
vt 0.000000 0.000000
vt 0.000000 0.000000
vt 0.000000 0.000000
vt 0.000000 0.000000
vt 0.000000 0.000000
vt 0.000000 0.000000
s 1
g off
g Cuadro5_Frame.001
usemtl Frame.001
f 25/2/1 27/4/1 24/1/1
s 2
f 29/6/2 24/1/2 28/5/2
s 3
f 31/8/3 28/5/3 30/7/3
s 4
f 26/3/4 30/7/4 27/4/4
s 5
f 32/9/5 26/3/5 25/2/5
s 6
f 34/11/6 25/2/6 29/6/6
s 7
f 35/12/7 29/6/7 31/8/7
s 8
f 33/10/8 31/8/8 26/3/8
s 0
f 32/9/9 37/14/9 33/10/9
f 34/11/10 36/13/11 32/9/11
f 35/12/12 38/15/12 34/11/12
f 33/10/13 39/16/14 35/12/14
f 36/13/15 41/18/15 37/14/15
f 38/15/16 40/17/16 36/13/16
f 39/16/17 42/19/17 38/15/17
f 37/14/18 43/20/18 39/16/18
f 40/17/19 45/22/19 41/18/19
f 42/19/20 44/21/20 40/17/20
f 44/21/21 49/26/21 45/22/21
f 46/23/22 48/25/22 44/21/22
f 48/25/3 53/30/3 49/26/3
f 50/27/4 52/29/4 48/25/4
f 49/26/2 55/32/2 51/28/2
f 27/4/23 57/34/23 24/1/23
f 30/7/23 56/33/23 27/4/23
f 28/5/23 58/35/23 30/7/23
f 24/1/23 59/36/23 28/5/23
f 56/33/3 61/38/3 57/34/3
f 58/35/2 60/37/2 56/33/2
f 59/36/1 62/39/1 58/35/1
f 57/34/4 63/40/4 59/36/4
s 1
f 25/2/1 26/3/1 27/4/1
s 2
f 29/6/2 25/2/2 24/1/2
s 3
f 31/8/3 29/6/3 28/5/3
s 4
f 26/3/4 31/8/4 30/7/4
s 5
f 32/9/5 33/10/5 26/3/5
s 6
f 34/11/6 32/9/6 25/2/6
s 7
f 35/12/7 34/11/7 29/6/7
s 8
f 33/10/8 35/12/8 31/8/8
s 0
f 32/9/9 36/13/9 37/14/9
f 34/11/10 38/15/10 36/13/10
f 35/12/12 39/16/12 38/15/12
f 33/10/13 37/14/13 39/16/13
f 36/13/15 40/17/15 41/18/15
f 38/15/16 42/19/16 40/17/16
f 39/16/17 43/20/17 42/19/17
f 37/14/18 41/18/18 43/20/18
f 40/17/19 44/21/19 45/22/19
f 42/19/20 46/23/20 44/21/20
f 41/18/24 45/22/24 47/24/24
f 44/21/21 48/25/21 49/26/21
f 46/23/22 50/27/22 48/25/22
f 45/22/25 49/26/25 51/28/25
f 48/25/3 52/29/3 53/30/3
f 50/27/4 54/31/4 52/29/4
f 51/28/1 55/32/1 54/31/1
f 49/26/2 53/30/2 55/32/2
f 27/4/23 56/33/23 57/34/23
f 30/7/23 58/35/23 56/33/23
f 28/5/23 59/36/23 58/35/23
f 24/1/23 57/34/23 59/36/23
f 56/33/3 60/37/3 61/38/3
f 58/35/2 62/39/2 60/37/2
f 59/36/1 63/40/1 62/39/1
f 57/34/4 61/38/4 63/40/4
l 1 2
l 1 3
l 7 8
l 7 9
l 5 10
l 13 16
l 17 18
l 19 21
l 19 23
l 65 66
l 67 69
l 65 71
l 79 80
l 7 23
l 4 8
l 6 10
l 14 16
l 16 17
l 12 21
l 6 22
l 20 23
l 66 69
l 72 75
l 78 79
l 67 70
l 75 76
l 18 22
g Cuadro3_Malla
v 390.443939 46.790131 71.668808
v 390.443939 13.429438 72.412979
v 390.443939 46.240021 47.007141
v 396.577789 21.559216 66.947144
v 390.854980 31.950148 58.593819
v 390.854980 34.728249 59.569386
v 397.925995 22.065804 69.952904
v 396.302094 21.392193 67.081306
v 397.650299 21.898987 70.087059
v 390.579254 34.561226 59.703548
v 390.579254 31.783333 58.727974
v 396.577789 27.766792 69.127235
v 390.854980 38.157932 60.773907
v 390.579254 37.991119 60.908066
v 396.302094 27.599979 69.261398
v 390.854980 35.380039 59.798332
v 390.579254 35.213017 59.932495
v 390.854980 35.054146 59.683914
v 397.925995 22.717594 70.181854
v 398.049469 22.172544 70.249306
v 397.650299 22.550781 70.316010
v 390.579254 34.887123 59.818077
v 397.773743 22.005730 70.383347
v 392.347168 11.369402 73.580475
v 388.972046 11.369402 73.580475
v 388.972046 10.769274 46.676838
v 392.347168 10.769274 46.676838
v 392.347168 48.900185 72.743286
v 388.972046 48.900185 72.743286
v 392.347168 48.300056 45.839649
v 388.972046 48.300056 45.839649
v 388.702148 11.781408 73.346970
v 388.702148 11.191282 46.891731
v 388.702148 48.478172 72.528389
v 388.702148 47.888046 46.073147
v 388.893555 12.290594 72.962364
v 388.893555 11.717113 47.253250
v 388.893555 47.952343 72.166870
v 388.893555 47.378860 46.457756
v 389.005676 14.307847 71.438499
v 389.005676 13.800308 48.685650
v 389.005676 45.869148 70.734474
v 389.005676 45.361610 47.981621
v 389.262329 14.745847 71.107742
v 389.262329 14.252621 48.996544
v 389.262329 45.416836 70.423576
v 389.262329 44.923611 48.312374
v 389.605347 14.902429 71.356491
v 389.605347 14.397956 48.741066
v 389.605347 45.271500 70.679054
v 389.605347 44.767029 48.063633
v 389.884521 14.902429 71.356491
v 389.884521 14.397956 48.741066
v 389.884521 45.271500 70.679054
v 389.884521 44.767029 48.063633
v 392.347168 12.879324 47.751312
v 392.347168 13.429438 72.412979
v 392.347168 46.240021 47.007141
v 392.347168 46.790131 71.668808
v 390.443939 12.879324 47.751312
v 390.443939 13.429438 72.412979
v 390.443939 46.240021 47.007141
v 390.443939 46.790131 71.668808
v 389.262329 45.869148 70.734474
v 389.884521 14.397956 48.741066
v 389.884521 14.902429 71.356491
v 390.163727 19.264668 67.954109
v 390.163727 18.907574 51.945545
v 389.884521 45.271500 70.679054
v 390.163727 40.761883 67.474571
v 389.884521 44.767029 48.063633
v 390.163727 40.404789 51.466015
v 390.442902 19.264668 67.954109
v 390.442902 18.907574 51.945545
v 390.442902 40.761883 67.474571
v 390.442902 40.404789 51.466015
v 390.430908 18.907574 51.945545
v 390.430908 19.264668 67.954109
v 390.430908 40.761883 67.474571
v 390.430908 40.404789 51.466015
vn -0.0000 -0.9998 0.0223
vn -0.0000 0.0223 0.9998
vn -0.0000 0.9998 -0.0223
vn -0.0000 -0.0223 -0.9998
vn -0.8396 -0.5431 0.0121
vn -0.6391 0.0172 0.7689
vn -0.8396 0.5431 -0.0121
vn -0.6391 -0.0172 -0.7689
vn -0.9379 0.3467 -0.0077
vn -0.8898 -0.0102 -0.4563
vn -0.8900 -0.0102 -0.4558
vn -0.9379 -0.3467 0.0077
vn -0.8898 0.0102 0.4563
vn -0.8900 0.0102 0.4558
vn -0.9985 0.0546 -0.0012
vn -0.9971 -0.0017 -0.0756
vn -0.9985 -0.0546 0.0012
vn -0.9971 0.0017 0.0756
vn -0.8664 0.4993 -0.0111
vn -0.7809 -0.0139 -0.6244
vn -0.4029 0.9150 -0.0204
vn 0.5923 -0.0180 -0.8055
vn 1.0000 -0.0000 -0.0000
vn -0.7809 0.0139 0.6244
vn 0.5923 0.0180 0.8055
vt 0.000000 0.000000
vt 0.000000 0.000000
vt 0.000000 0.000000
vt 0.000000 0.000000
vt 0.000000 0.000000
vt 0.000000 0.000000
vt 0.000000 0.000000
vt 0.000000 0.000000
vt 0.000000 0.000000
vt 0.000000 0.000000
vt 0.000000 0.000000
vt 0.000000 0.000000
vt 0.000000 0.000000
vt 0.000000 0.000000
vt 0.000000 0.000000
vt 0.000000 0.000000
vt 0.000000 0.000000
vt 0.000000 0.000000
vt 0.000000 0.000000
vt 0.000000 0.000000
vt 0.000000 0.000000
vt 0.000000 0.000000
vt 0.000000 0.000000
vt 0.000000 0.000000
vt 0.000000 0.000000
vt 0.000000 0.000000
vt 0.000000 0.000000
vt 0.000000 0.000000
vt 0.000000 0.000000
vt 0.000000 0.000000
vt 0.000000 0.000000
vt 0.000000 0.000000
vt 0.000000 0.000000
vt 0.000000 0.000000
vt 0.000000 0.000000
vt 0.000000 0.000000
vt 0.000000 0.000000
vt 0.000000 0.000000
vt 0.000000 0.000000
vt 0.000000 0.000000
s 1
g off
g Cuadro3_Frame.001
usemtl Frame.001
f 105/42/26 107/44/26 104/41/26
s 2
f 109/46/27 104/41/27 108/45/27
s 3
f 111/48/28 108/45/28 110/47/28
s 4
f 106/43/29 110/47/29 107/44/29
s 5
f 112/49/30 106/43/30 105/42/30
s 6
f 114/51/31 105/42/31 109/46/31
s 7
f 115/52/32 109/46/32 111/48/32
s 8
f 113/50/33 111/48/33 106/43/33
s 0
f 112/49/34 117/54/34 113/50/34
f 114/51/35 116/53/36 112/49/36
f 115/52/37 118/55/37 114/51/37
f 113/50/38 119/56/39 115/52/39
f 116/53/40 121/58/40 117/54/40
f 118/55/41 120/57/41 116/53/41
f 119/56/42 122/59/42 118/55/42
f 117/54/43 123/60/43 119/56/43
f 120/57/44 125/62/44 121/58/44
f 122/59/45 124/61/45 120/57/45
f 124/61/46 129/66/46 125/62/46
f 126/63/47 128/65/47 124/61/47
f 128/65/28 133/70/28 129/66/28
f 130/67/29 132/69/29 128/65/29
f 129/66/27 135/72/27 131/68/27
f 107/44/48 137/74/48 104/41/48
f 110/47/48 136/73/48 107/44/48
f 108/45/48 138/75/48 110/47/48
f 104/41/48 139/76/48 108/45/48
f 136/73/28 141/78/28 137/74/28
f 138/75/27 140/77/27 136/73/27
f 139/76/26 142/79/26 138/75/26
f 137/74/29 143/80/29 139/76/29
s 1
f 105/42/26 106/43/26 107/44/26
s 2
f 109/46/27 105/42/27 104/41/27
s 3
f 111/48/28 109/46/28 108/45/28
s 4
f 106/43/29 111/48/29 110/47/29
s 5
f 112/49/30 113/50/30 106/43/30
s 6
f 114/51/31 112/49/31 105/42/31
s 7
f 115/52/32 114/51/32 109/46/32
s 8
f 113/50/33 115/52/33 111/48/33
s 0
f 112/49/34 116/53/34 117/54/34
f 114/51/35 118/55/35 116/53/35
f 115/52/37 119/56/37 118/55/37
f 113/50/38 117/54/38 119/56/38
f 116/53/40 120/57/40 121/58/40
f 118/55/41 122/59/41 120/57/41
f 119/56/42 123/60/42 122/59/42
f 117/54/43 121/58/43 123/60/43
f 120/57/44 124/61/44 125/62/44
f 122/59/45 126/63/45 124/61/45
f 121/58/49 125/62/49 127/64/49
f 124/61/46 128/65/46 129/66/46
f 126/63/47 130/67/47 128/65/47
f 125/62/50 129/66/50 131/68/50
f 128/65/28 132/69/28 133/70/28
f 130/67/29 134/71/29 132/69/29
f 131/68/26 135/72/26 134/71/26
f 129/66/27 133/70/27 135/72/27
f 107/44/48 136/73/48 137/74/48
f 110/47/48 138/75/48 136/73/48
f 108/45/48 139/76/48 138/75/48
f 104/41/48 137/74/48 139/76/48
f 136/73/28 140/77/28 141/78/28
f 138/75/27 142/79/27 140/77/27
f 139/76/26 143/80/26 142/79/26
f 137/74/29 141/78/29 143/80/29
l 81 82
l 81 83
l 87 88
l 87 89
l 85 90
l 93 96
l 97 98
l 99 101
l 99 103
l 145 146
l 147 149
l 145 151
l 159 160
l 87 103
l 84 88
l 86 90
l 94 96
l 96 97
l 92 101
l 86 102
l 100 103
l 146 149
l 152 155
l 158 159
l 147 150
l 155 156
l 98 102
g Cuadro4_Malla
v 390.443939 46.790131 -33.474579
v 390.443939 13.429438 -32.730408
v 390.443939 46.240021 -58.136246
v 396.577789 21.559216 -38.196243
v 390.854980 31.950148 -46.549568
v 390.854980 34.728249 -45.574001
v 397.925995 22.065804 -35.190483
v 396.302094 21.392193 -38.062080
v 397.650299 21.898987 -35.056328
v 390.579254 34.561226 -45.439838
v 390.579254 31.783333 -46.415413
v 396.577789 27.766792 -36.016148
v 390.854980 38.157932 -44.369480
v 390.579254 37.991119 -44.235321
v 396.302094 27.599979 -35.881992
v 390.854980 35.380039 -45.345055
v 390.579254 35.213017 -45.210892
v 390.854980 35.054146 -45.459473
v 397.925995 22.717594 -34.961533
v 398.049469 22.172544 -34.894085
v 397.650299 22.550781 -34.827377
v 390.579254 34.887123 -45.325310
v 397.773743 22.005730 -34.760040
v 392.347168 11.369402 -31.562916
v 388.972046 11.369402 -31.562916
v 388.972046 10.769274 -58.466549
v 392.347168 10.769274 -58.466549
v 392.347168 48.900185 -32.400105
v 388.972046 48.900185 -32.400105
v 392.347168 48.300056 -59.303738
v 388.972046 48.300056 -59.303738
v 388.702148 11.781408 -31.796413
v 388.702148 11.191282 -58.251656
v 388.702148 48.478172 -32.614998
v 388.702148 47.888046 -59.070240
v 388.893555 12.290594 -32.181023
v 388.893555 11.717113 -57.890137
v 388.893555 47.952343 -32.976517
v 388.893555 47.378860 -58.685631
v 389.005676 14.307847 -33.704887
v 389.005676 13.800308 -56.457737
v 389.005676 45.869148 -34.408916
v 389.005676 45.361610 -57.161766
v 389.262329 14.745847 -34.035641
v 389.262329 14.252621 -56.146843
v 389.262329 45.416836 -34.719810
v 389.262329 44.923611 -56.831013
v 389.605347 14.902429 -33.786900
v 389.605347 14.397956 -56.402321
v 389.605347 45.271500 -34.464333
v 389.605347 44.767029 -57.079754
v 389.884521 14.902429 -33.786900
v 389.884521 14.397956 -56.402321
v 389.884521 45.271500 -34.464333
v 389.884521 44.767029 -57.079754
v 392.347168 12.879324 -57.392075
v 392.347168 13.429438 -32.730408
v 392.347168 46.240021 -58.136246
v 392.347168 46.790131 -33.474579
v 390.443939 12.879324 -57.392075
v 390.443939 13.429438 -32.730408
v 390.443939 46.240021 -58.136246
v 390.443939 46.790131 -33.474579
v 389.262329 45.869148 -34.408916
v 389.884521 14.397956 -56.402321
v 389.884521 14.902429 -33.786900
v 390.163727 19.264668 -37.189281
v 390.163727 18.907574 -53.197842
v 389.884521 45.271500 -34.464333
v 390.163727 40.761883 -37.668812
v 389.884521 44.767029 -57.079754
v 390.163727 40.404789 -53.677372
v 390.442902 19.264668 -37.189281
v 390.442902 18.907574 -53.197842
v 390.442902 40.761883 -37.668812
v 390.442902 40.404789 -53.677372
v 390.430908 18.907574 -53.197842
v 390.430908 19.264668 -37.189281
v 390.430908 40.761883 -37.668812
v 390.430908 40.404789 -53.677372
vn -0.0000 -0.9998 0.0223
vn -0.0000 0.0223 0.9998
vn -0.0000 0.9998 -0.0223
vn -0.0000 -0.0223 -0.9998
vn -0.8396 -0.5431 0.0121
vn -0.6391 0.0172 0.7689
vn -0.8396 0.5431 -0.0121
vn -0.6391 -0.0172 -0.7689
vn -0.9379 0.3467 -0.0077
vn -0.8898 -0.0102 -0.4563
vn -0.8900 -0.0102 -0.4558
vn -0.9379 -0.3467 0.0077
vn -0.8898 0.0102 0.4563
vn -0.8900 0.0102 0.4558
vn -0.9985 0.0546 -0.0012
vn -0.9971 -0.0017 -0.0756
vn -0.9985 -0.0546 0.0012
vn -0.9971 0.0017 0.0756
vn -0.8664 0.4993 -0.0111
vn -0.7809 -0.0139 -0.6244
vn -0.4029 0.9150 -0.0204
vn 0.5923 -0.0180 -0.8055
vn 1.0000 -0.0000 -0.0000
vn -0.7809 0.0139 0.6244
vn 0.5923 0.0180 0.8055
vt 0.000000 0.000000
vt 0.000000 0.000000
vt 0.000000 0.000000
vt 0.000000 0.000000
vt 0.000000 0.000000
vt 0.000000 0.000000
vt 0.000000 0.000000
vt 0.000000 0.000000
vt 0.000000 0.000000
vt 0.000000 0.000000
vt 0.000000 0.000000
vt 0.000000 0.000000
vt 0.000000 0.000000
vt 0.000000 0.000000
vt 0.000000 0.000000
vt 0.000000 0.000000
vt 0.000000 0.000000
vt 0.000000 0.000000
vt 0.000000 0.000000
vt 0.000000 0.000000
vt 0.000000 0.000000
vt 0.000000 0.000000
vt 0.000000 0.000000
vt 0.000000 0.000000
vt 0.000000 0.000000
vt 0.000000 0.000000
vt 0.000000 0.000000
vt 0.000000 0.000000
vt 0.000000 0.000000
vt 0.000000 0.000000
vt 0.000000 0.000000
vt 0.000000 0.000000
vt 0.000000 0.000000
vt 0.000000 0.000000
vt 0.000000 0.000000
vt 0.000000 0.000000
vt 0.000000 0.000000
vt 0.000000 0.000000
vt 0.000000 0.000000
vt 0.000000 0.000000
s 1
g off
g Cuadro4_Frame.001
usemtl Frame.001
f 185/82/51 187/84/51 184/81/51
s 2
f 189/86/52 184/81/52 188/85/52
s 3
f 191/88/53 188/85/53 190/87/53
s 4
f 186/83/54 190/87/54 187/84/54
s 5
f 192/89/55 186/83/55 185/82/55
s 6
f 194/91/56 185/82/56 189/86/56
s 7
f 195/92/57 189/86/57 191/88/57
s 8
f 193/90/58 191/88/58 186/83/58
s 0
f 192/89/59 197/94/59 193/90/59
f 194/91/60 196/93/61 192/89/61
f 195/92/62 198/95/62 194/91/62
f 193/90/63 199/96/64 195/92/64
f 196/93/65 201/98/65 197/94/65
f 198/95/66 200/97/66 196/93/66
f 199/96/67 202/99/67 198/95/67
f 197/94/68 203/100/68 199/96/68
f 200/97/69 205/102/69 201/98/69
f 202/99/70 204/101/70 200/97/70
f 204/101/71 209/106/71 205/102/71
f 206/103/72 208/105/72 204/101/72
f 208/105/53 213/110/53 209/106/53
f 210/107/54 212/109/54 208/105/54
f 209/106/52 215/112/52 211/108/52
f 187/84/73 217/114/73 184/81/73
f 190/87/73 216/113/73 187/84/73
f 188/85/73 218/115/73 190/87/73
f 184/81/73 219/116/73 188/85/73
f 216/113/53 221/118/53 217/114/53
f 218/115/52 220/117/52 216/113/52
f 219/116/51 222/119/51 218/115/51
f 217/114/54 223/120/54 219/116/54
s 1
f 185/82/51 186/83/51 187/84/51
s 2
f 189/86/52 185/82/52 184/81/52
s 3
f 191/88/53 189/86/53 188/85/53
s 4
f 186/83/54 191/88/54 190/87/54
s 5
f 192/89/55 193/90/55 186/83/55
s 6
f 194/91/56 192/89/56 185/82/56
s 7
f 195/92/57 194/91/57 189/86/57
s 8
f 193/90/58 195/92/58 191/88/58
s 0
f 192/89/59 196/93/59 197/94/59
f 194/91/60 198/95/60 196/93/60
f 195/92/62 199/96/62 198/95/62
f 193/90/63 197/94/63 199/96/63
f 196/93/65 200/97/65 201/98/65
f 198/95/66 202/99/66 200/97/66
f 199/96/67 203/100/67 202/99/67
f 197/94/68 201/98/68 203/100/68
f 200/97/69 204/101/69 205/102/69
f 202/99/70 206/103/70 204/101/70
f 201/98/74 205/102/74 207/104/74
f 204/101/71 208/105/71 209/106/71
f 206/103/72 210/107/72 208/105/72
f 205/102/75 209/106/75 211/108/75
f 208/105/53 212/109/53 213/110/53
f 210/107/54 214/111/54 212/109/54
f 211/108/51 215/112/51 214/111/51
f 209/106/52 213/110/52 215/112/52
f 187/84/73 216/113/73 217/114/73
f 190/87/73 218/115/73 216/113/73
f 188/85/73 219/116/73 218/115/73
f 184/81/73 217/114/73 219/116/73
f 216/113/53 220/117/53 221/118/53
f 218/115/52 222/119/52 220/117/52
f 219/116/51 223/120/51 222/119/51
f 217/114/54 221/118/54 223/120/54
l 161 162
l 161 163
l 167 168
l 167 169
l 165 170
l 173 176
l 177 178
l 179 181
l 179 183
l 225 226
l 227 229
l 225 231
l 239 240
l 167 183
l 164 168
l 166 170
l 174 176
l 176 177
l 172 181
l 166 182
l 180 183
l 226 229
l 232 235
l 238 239
l 227 230
l 235 236
l 178 182
