# Blender v3.2.2 OBJ File: 'Museo.blend'
# www.blender.org
mtllib Techo.mtl
o Techo_Plane
v -30.012707 38.947933 55.585304
v 105.112930 38.947933 55.585304
v -30.012707 38.947933 -32.599586
v 105.112930 38.947933 -32.599586
v -30.012707 40.674503 55.585304
v 105.112930 40.674503 55.585304
v -30.012707 40.674503 -32.599586
v 105.112930 40.674503 -32.599586
v 105.577835 39.811218 -32.902992
v 105.577835 39.811218 55.888702
v -30.477604 39.811218 55.888702
v -30.477604 39.811218 -32.902992
vt 0.000000 0.000000
vt 0.000000 1.000000
vt 1.000000 1.000000
vt 1.000000 0.000000
vt 0.000000 0.000000
vt 1.000000 0.000000
vt 1.000000 1.000000
vt 0.000000 1.000000
vt 1.000000 0.000000
vt 1.000000 1.000000
vt 0.000000 1.000000
vt 0.000000 0.000000
vn 0.0000 -1.0000 0.0000
vn 0.0000 1.0000 0.0000
vn 0.8804 0.4741 0.0000
vn -0.8804 0.4741 0.0000
vn 0.0000 0.3316 -0.9434
vn 0.0000 0.3316 0.9434
vn 0.0000 -0.3316 0.9434
vn 0.0000 -0.3316 -0.9434
vn -0.8804 -0.4741 0.0000
vn 0.8804 -0.4741 0.0000
usemtl None
s off
f 1/1/1 3/2/1 4/3/1 2/4/1
f 5/5/2 6/6/2 8/7/2 7/8/2
f 10/9/3 9/10/3 8/7/3 6/6/3
f 12/11/4 11/12/4 5/5/4 7/8/4
f 9/10/5 12/11/5 7/8/5 8/7/5
f 11/12/6 10/9/6 6/6/6 5/5/6
f 1/1/7 2/4/7 10/9/7 11/12/7
f 4/3/8 3/2/8 12/11/8 9/10/8
f 3/2/9 1/1/9 11/12/9 12/11/9
f 2/4/10 4/3/10 9/10/10 10/9/10
