# Blender 3.3.1
# www.blender.org
mtllib Cuadro2.mtl
g Ikea_Frame_Malla
v -0.687300 -11.000001 7.999998
v -0.687300 -10.999999 -8.000002
v -0.687300 11.000001 -7.999998
v -0.687300 10.999999 8.000002
v 4.783200 -6.288199 -4.044401
v -0.320700 0.953200 1.026000
v -0.320700 0.028100 2.347300
v 5.985600 -8.978299 -3.833701
v 4.537300 -6.404500 -4.125901
v 5.739700 -9.094599 -3.915102
v -0.566600 -0.088200 2.265800
v -0.566600 0.836900 0.944600
v 4.783200 -8.355500 -1.092001
v -0.320700 -1.114101 3.978500
v -0.566600 -1.230401 3.897100
v 4.537300 -8.471800 -1.173401
v -0.320700 -0.189000 2.657300
v -0.566600 -0.305300 2.575800
v -0.320700 -0.080500 2.502300
v 5.985600 -9.195399 -3.523701
v 6.095700 -9.244699 -3.785702
v 5.739700 -9.311699 -3.605101
v -0.566600 -0.196800 2.420800
v 5.849800 -9.360899 -3.867101
v 1.010100 -11.999998 -9.000002
v -2.000000 -11.999998 -9.000002
v -2.000000 12.000002 -8.999998
v 1.010100 12.000002 -8.999998
v 1.010100 -12.000002 8.999998
v -2.000000 -12.000002 8.999998
v 1.010100 11.999998 9.000002
v -2.000000 11.999998 9.000002
v -2.240700 -11.799998 -8.800002
v -2.240700 11.800002 -8.799998
v -2.240700 -11.800002 8.799998
v -2.240700 11.799998 8.800002
v -2.070000 -11.467199 -8.551802
v -2.070000 11.467201 -8.551798
v -2.070000 -11.467201 8.551798
v -2.070000 11.467199 8.551802
v -1.970000 -10.148599 -7.568501
v -1.970000 10.148601 -7.568499
v -1.970000 -10.148601 7.568499
v -1.970000 10.148599 7.568501
v -1.741100 -9.862399 -7.355001
v -1.741100 9.862401 -7.354999
v -1.741100 -9.862401 7.354999
v -1.741100 9.862399 7.355001
v -1.435200 -10.087299 -7.282601
v -1.435200 10.087301 -7.282598
v -1.435200 -10.087301 7.282598
v -1.435200 10.087299 7.282601
v -1.186200 -10.087299 -7.282601
v -1.186200 10.087301 -7.282598
v -1.186200 -10.087301 7.282598
v -1.186200 10.087299 7.282601
v 1.010100 11.000001 -7.999998
v 1.010100 -10.999999 -8.000002
v 1.010100 10.999999 8.000002
v 1.010100 -11.000001 7.999998
v -0.687300 11.000001 -7.999998
v -0.687300 -10.999999 -8.000002
v -0.687300 10.999999 8.000002
v -0.687300 -11.000001 7.999998
v -1.741100 9.862401 -7.354999
v -1.741100 -10.148599 -7.355001
v -1.741100 -10.148601 7.568499
v -1.741100 9.862399 7.568501
v -1.186200 10.087301 -7.282598
v -1.186200 -10.087299 -7.282601
v -0.937200 -7.140399 -5.155101
v -0.937200 7.140401 -5.155099
v -1.186200 -10.087301 7.282598
v -0.937200 -7.140401 5.155099
v -1.186200 10.087299 7.282601
v -0.937200 7.140399 5.155101
v -0.688200 -7.140399 -5.155101
v -0.688200 7.140401 -5.155099
v -0.688200 -7.140401 5.155099
v -0.688200 7.140399 5.155101
v -0.698900 7.140401 -5.155099
v -0.698900 -7.140399 -5.155101
v -0.698900 -7.140401 5.155099
v -0.698900 7.140399 5.155101
vn 1.0000 -0.0000 -0.0000
vn 0.8660 0.4096 0.2868
vn 0.8660 0.4095 0.2868
vn -0.8660 -0.4096 -0.2868
vn -0.8660 -0.4095 -0.2868
vn 0.3098 0.0103 -0.9507
vn 0.2906 0.0550 -0.9553
vn 0.2906 0.0551 -0.9553
vn 0.0001 -0.5735 0.8192
vn -0.5001 0.7094 0.4966
vn -0.5000 0.7094 0.4967
vn 0.0002 0.5737 -0.8191
vn -0.0001 0.5735 -0.8192
vn -0.8660 -0.4094 -0.2870
vn 0.2952 -0.8818 0.3678
vn 0.4998 -0.7137 -0.4907
vn 0.4997 -0.7138 -0.4906
vn -0.5000 0.7095 0.4966
vn -0.4998 0.7096 0.4966
vn -0.5001 0.7093 0.4967
vn -0.8660 -0.4097 -0.2866
vn -0.5001 0.7093 0.4968
vn -0.8660 -0.4096 -0.2867
vn 0.2659 -0.8630 0.4296
vn 0.2953 -0.8818 0.3678
vn -0.0000 -0.0000 -1.0000
vn -0.0000 -1.0000 -0.0000
vn -0.0000 -0.0000 1.0000
vn -0.0000 1.0000 -0.0000
vn -0.6391 -0.0000 -0.7691
vn -0.6391 -0.7691 -0.0000
vn -0.6391 -0.0000 0.7691
vn -0.6391 0.7691 -0.0000
vn -0.8239 0.0005 0.5667
vn -0.8242 -0.0000 0.5663
vn -0.8900 0.4560 0.0001
vn -0.8900 0.4560 -0.0000
vn -0.8239 -0.0005 -0.5667
vn -0.8242 -0.0000 -0.5663
vn -0.8900 -0.4560 -0.0001
vn -0.8900 -0.4560 -0.0000
vn -0.9949 -0.0000 0.1012
vn -0.9971 0.0756 -0.0000
vn -0.9949 -0.0000 -0.1012
vn -0.9971 -0.0756 -0.0000
vn -0.6821 -0.0000 0.7313
vn -0.7809 0.6246 -0.0000
vn -0.6821 -0.0000 -0.7313
vn -0.7809 -0.6246 -0.0000
vn -0.2303 -0.0000 0.9731
vn 0.5923 0.8057 -0.0000
vn -0.2303 -0.0000 -0.9731
vn 0.5923 -0.8057 -0.0000
vn -1.0000 -0.0000 -0.0000
vn -0.9932 -0.0000 0.1162
vn -0.9964 0.0842 -0.0000
vn -0.9932 -0.0000 -0.1162
vn -0.9964 -0.0842 -0.0000
vn -0.8237 0.0003 0.5670
vn -0.8898 0.4564 0.0005
vn -0.8237 -0.0003 -0.5670
vn -0.8898 -0.4564 -0.0005
vt 0.000000 0.000000
vt 0.000000 0.000000
vt 0.000000 0.000000
vt 0.000000 0.000000
vt 0.000000 0.000000
vt 1.000000 0.000000
vt 10.207600 0.000000
vt 0.000000 0.000000
vt 1.000000 10.207600
vt 3.604300 0.000000
vt -0.612900 10.207600
vt 1.991400 0.000000
vt -0.612900 0.000000
vt 1.612900 0.000000
vt 0.000000 0.000000
vt 0.000000 0.283900
vt 10.207600 0.283900
vt 1.612900 0.000000
vt 1.612900 0.283900
vt 1.612900 10.207600
vt 1.991400 0.283900
vt 0.000000 10.207600
vt 0.000000 0.283900
vt 3.604300 0.283900
vt 0.000000 0.000000
vt -2.604300 0.000000
vt 3.604300 0.000000
vt 0.000000 0.000000
vt 10.207600 0.000000
vt -2.604300 10.207600
vt 10.207600 0.283900
vt 0.000000 0.283900
vt 3.604300 10.207600
vt 0.000000 0.283900
vt 3.604300 0.000000
vt 3.604300 0.283900
vt 1.612900 0.000000
vt -0.991400 10.207600
vt 1.612900 0.283900
vt 1.991400 10.207600
vt -0.802200 10.207600
vt 1.802200 0.000000
vt -0.991400 0.000000
vt 1.991400 0.000000
vt 1.802200 0.000000
vt -0.802200 0.000000
vt 1.991400 0.000000
vt 1.991400 0.283900
vt 1.802200 10.207600
vt 1.802200 0.283900
vt 1.802200 0.000000
vt 1.802200 0.283900
vt 0.000000 0.000000
vt 0.000000 0.000000
vt 0.000000 0.000000
vt 0.000000 0.000000
vt 0.000000 0.000000
vt 0.000000 0.000000
vt 0.000000 0.000000
vt 0.000000 0.000000
vt 0.000000 0.000000
vt 0.000000 0.000000
vt 0.000000 0.000000
vt 0.000000 0.000000
vt 0.000000 0.000000
vt 0.000000 0.000000
vt 0.000000 0.000000
vt 0.000000 0.000000
vt 0.000000 0.000000
vt 0.000000 0.000000
vt 0.000000 0.000000
vt 0.000000 0.000000
vt 0.000000 0.000000
vt 0.000000 0.000000
vt 0.000000 0.000000
vt 0.000000 0.000000
vt 0.000000 0.000000
vt 0.000000 0.000000
vt 0.000000 0.000000
vt 0.000000 0.000000
vt 0.000000 0.000000
vt 0.000000 0.000000
vt 0.000000 0.000000
vt 0.000000 0.000000
vt 0.000000 0.000000
vt 0.000000 0.000000
vt 0.000000 0.000000
vt 0.000000 0.000000
vt 0.000000 0.000000
vt 0.000000 0.000000
vt 0.000000 0.000000
vt 0.000000 0.000000
vt 0.000000 20.011000
vt 0.000000 0.000000
vt 14.923500 0.000000
vt 14.923500 20.011000
vt 0.000000 0.000000
vt 0.000000 0.000000
vt 0.000000 0.000000
vt 0.000000 0.000000
vt 0.000000 0.000000
vt 0.000000 0.000000
vt 0.000000 0.000000
vt 0.000000 0.000000
vt 0.000000 0.000000
vt 0.000000 0.000000
vt 0.000000 0.000000
vt 0.000000 0.000000
vt 0.000000 100.000000
vt 0.000000 0.000000
vt 100.000000 0.000000
vt 100.000000 100.000000
s 1
g off
g Ikea_Frame_Frame.001
usemtl Frame.001
f 2/2/1 4/4/1 1/1/1
s 2
f 5/6/2 7/11/3 8/13/2
s 3
f 9/15/4 11/20/5 12/22/4
s 4
f 8/14/6 9/16/7 5/5/8
s 5
f 14/29/9 16/34/9 13/25/9
s 6
f 17/37/10 15/32/11 14/28/11
s 7
f 5/7/12 12/23/13 6/8/13
s 2
f 19/41/2 20/43/3 21/46/2
s 3
f 22/47/14 23/49/4 24/51/4
s 4
f 20/44/15 24/52/16 21/45/17
s 6
f 7/12/18 23/50/19 19/42/20
s 2
f 19/41/2 8/13/2 7/11/3
s 3
f 10/18/21 23/49/4 11/20/5
s 4
f 24/52/16 8/14/6 21/45/17
s 6
f 6/10/11 11/21/22 7/12/18
f 19/42/20 18/39/10 17/37/10
s 2
f 17/38/2 13/26/2 20/43/3
s 3
f 16/35/23 18/40/4 22/47/14
s 4
f 13/27/24 22/48/25 20/44/15
s 8
f 26/54/26 28/56/26 25/53/26
s 9
f 30/58/27 25/53/27 29/57/27
s 10
f 32/60/28 29/57/28 31/59/28
s 11
f 27/55/29 31/59/29 28/56/29
s 12
f 33/61/30 27/55/30 26/54/30
s 13
f 35/63/31 26/54/31 30/58/31
s 14
f 36/64/32 30/58/32 32/60/32
s 15
f 34/62/33 32/60/33 27/55/33
s 0
f 33/61/34 38/66/35 34/62/35
f 35/63/36 37/65/37 33/61/37
f 36/64/38 39/67/39 35/63/39
f 34/62/40 40/68/41 36/64/41
f 37/65/42 42/70/42 38/66/42
f 39/67/43 41/69/43 37/65/43
f 40/68/44 43/71/44 39/67/44
f 38/66/45 44/72/45 40/68/45
f 41/69/46 46/74/46 42/70/46
f 43/71/47 45/73/47 41/69/47
f 44/72/48 47/75/48 43/71/48
f 42/70/49 48/76/49 44/72/49
f 45/73/50 50/78/50 46/74/50
f 47/75/51 49/77/51 45/73/51
f 48/76/52 51/79/52 47/75/52
f 46/74/53 52/80/53 48/76/53
f 49/77/28 54/82/28 50/78/28
f 51/79/29 53/81/29 49/77/29
f 52/80/26 55/83/26 51/79/26
f 50/78/27 56/84/27 52/80/27
f 28/56/1 58/86/1 25/53/1
f 31/59/1 57/85/1 28/56/1
f 29/57/1 59/87/1 31/59/1
f 25/53/1 60/88/1 29/57/1
f 57/85/28 62/90/28 58/86/28
f 59/87/27 61/89/27 57/85/27
f 60/88/26 63/91/26 59/87/26
f 58/86/29 64/92/29 60/88/29
s 1
f 2/2/1 3/3/1 4/4/1
s 2
f 5/6/2 6/9/2 7/11/3
s 3
f 9/15/4 10/18/21 11/20/5
s 4
f 8/14/6 10/19/6 9/16/7
s 5
f 14/29/9 15/31/9 16/34/9
s 6
f 17/37/10 18/39/10 15/32/11
s 7
f 5/7/12 9/17/12 12/23/13
s 2
f 19/41/2 17/38/2 20/43/3
s 3
f 22/47/14 18/40/4 23/49/4
s 4
f 20/44/15 22/48/25 24/52/16
s 6
f 7/12/18 11/21/22 23/50/19
s 2
f 19/41/2 21/46/2 8/13/2
s 3
f 10/18/21 24/51/4 23/49/4
s 4
f 24/52/16 10/19/6 8/14/6
s 6
f 6/10/11 12/24/11 11/21/22
f 19/42/20 23/50/19 18/39/10
s 2
f 17/38/2 14/30/2 13/26/2
s 3
f 16/35/23 15/33/4 18/40/4
s 4
f 13/27/24 16/36/24 22/48/25
s 8
f 26/54/26 27/55/26 28/56/26
s 9
f 30/58/27 26/54/27 25/53/27
s 10
f 32/60/28 30/58/28 29/57/28
s 11
f 27/55/29 32/60/29 31/59/29
s 12
f 33/61/30 34/62/30 27/55/30
s 13
f 35/63/31 33/61/31 26/54/31
s 14
f 36/64/32 35/63/32 30/58/32
s 15
f 34/62/33 36/64/33 32/60/33
s 0
f 33/61/35 37/65/35 38/66/59
f 35/63/37 39/67/37 37/65/60
f 36/64/39 40/68/39 39/67/61
f 34/62/41 38/66/41 40/68/62
f 37/65/42 41/69/42 42/70/42
f 39/67/43 43/71/43 41/69/43
f 40/68/44 44/72/44 43/71/44
f 38/66/45 42/70/45 44/72/45
f 41/69/46 45/73/46 46/74/46
f 43/71/47 47/75/47 45/73/47
f 44/72/48 48/76/48 47/75/48
f 42/70/49 46/74/49 48/76/49
f 45/73/50 49/77/50 50/78/50
f 47/75/51 51/79/51 49/77/51
f 48/76/52 52/80/52 51/79/52
f 46/74/53 50/78/53 52/80/53
f 49/77/28 53/81/28 54/82/28
f 51/79/29 55/83/29 53/81/29
f 52/80/26 56/84/26 55/83/26
f 50/78/27 54/82/27 56/84/27
f 28/56/1 57/85/1 58/86/1
f 31/59/1 59/87/1 57/85/1
f 29/57/1 60/88/1 59/87/1
f 25/53/1 58/86/1 60/88/1
f 57/85/28 61/89/28 62/90/28
f 59/87/27 63/91/27 61/89/27
f 60/88/26 64/92/26 63/91/26
f 58/86/29 62/90/29 64/92/29
s 44
g Ikea_Frame_Glass.001
usemtl Glass.001
f 66/94/54 68/96/54 65/93/54
f 66/94/54 67/95/54 68/96/54
s 0
g Ikea_Frame_White.001
usemtl White.001
f 70/98/55 72/100/55 69/97/55
f 73/101/56 71/99/56 70/98/56
f 75/103/57 74/102/57 73/101/57
f 69/97/58 76/104/58 75/103/58
f 71/99/28 78/106/28 72/100/28
f 74/102/29 77/105/29 71/99/29
f 76/104/26 79/107/26 74/102/26
f 72/100/27 80/108/27 76/104/27
f 70/98/55 71/99/55 72/100/55
f 73/101/56 74/102/56 71/99/56
f 75/103/57 76/104/57 74/102/57
f 69/97/58 72/100/58 76/104/58
f 71/99/28 77/105/28 78/106/28
f 74/102/29 79/107/29 77/105/29
f 76/104/26 80/108/26 79/107/26
f 72/100/27 78/106/27 80/108/27
s 53
g Ikea_Frame_Photo.001
usemtl Photo.001
f 82/110/54 84/112/54 81/109/54
f 82/110/54 83/111/54 84/112/54
