# Blender v2.81 (sub 16) OBJ File: 'Huacos.blend'
# www.blender.org
mtllib CuerpoMuseo.mtl
o CueroiMuseo
v 93.479065 1.805053 -19.762131
v 74.349121 2.199599 -19.114815
v 93.479050 27.638189 -19.762375
v 68.575821 27.243649 -18.919436
v 94.789307 1.805042 26.546669
v 69.886292 27.243633 27.389355
v 75.659607 2.199583 27.193977
v 94.789307 27.638174 26.546677
v 75.537659 2.199583 22.886173
v 94.667389 24.148342 22.238609
v 94.667389 1.805042 22.238605
v 70.546814 23.849150 23.055065
v 69.477493 23.849167 -14.734267
v 93.598053 1.805053 -15.550729
v 93.598053 24.148352 -15.550725
v 74.468338 2.199594 -14.903164
v 439.126465 1.846515 -94.474731
v 423.876892 59.619011 96.710876
v 439.500580 1.846452 112.315338
v 423.559143 59.619072 -78.979004
v 109.735840 59.619064 -79.354919
v 115.314819 59.619011 91.383316
v 115.013168 59.619064 -75.488037
v 110.053574 59.619011 96.334702
v 414.568451 59.619064 -75.130539
v 94.708694 1.846512 -86.644836
v 416.144836 1.846514 -86.224976
v 416.486755 1.846453 102.906860
v 414.870361 59.619019 91.740799
v 95.050629 1.846452 102.487000
v 83.565735 1.846489 -17.727312
v 83.426208 1.846514 -94.939468
v 83.645721 1.846477 26.438545
v 94.180023 25.003365 26.452454
v 94.913223 1.846477 26.453465
v 103.043762 25.003365 26.464050
v 94.833267 1.846489 -17.712635
v 94.100052 25.003376 -17.713400
v 83.800064 1.846446 111.850601
v 102.963806 25.003376 -17.701803
v 110.673004 54.411690 47.518330
v 229.229492 54.411690 47.695152
v 88.803146 3.637546 47.485714
v 229.229492 3.637547 47.695156
v 110.668442 54.411690 44.652699
v 229.224930 54.411690 44.829521
v 88.798599 3.637547 44.620087
v 229.224930 3.637547 44.829525
v 169.951248 54.411690 47.606739
v 159.016327 3.637546 47.590435
v 169.946686 54.411690 44.741108
v 159.011749 3.637547 44.724808
v 199.590363 54.411690 47.650944
v 199.585815 54.411690 44.785316
v 194.909927 3.637547 47.642796
v 194.905365 3.637547 44.777164
v 214.409927 54.411690 47.673054
v 214.405365 54.411690 44.807419
v 211.676193 3.637547 47.668980
v 211.671631 3.637547 44.803349
v 95.711563 19.676472 47.496014
v 229.229492 19.676472 47.695152
v 95.707016 19.676472 44.630383
v 229.224930 19.676474 44.829529
v 162.465973 19.676472 44.729954
v 162.470520 19.676472 47.595581
v 194.688156 38.192986 44.779743
v 194.692719 38.192986 47.645370
v 211.667236 38.192986 44.804630
v 211.671783 38.192986 47.670261
v 229.722717 54.411697 -75.202225
v 229.995255 54.411690 96.157135
v 229.701538 3.637551 -88.519150
v 230.015976 3.637543 109.187027
v 232.778549 54.411697 -75.197670
v 233.051086 54.411690 96.161682
v 232.757355 3.637551 -88.514587
v 233.071808 3.637543 109.191574
v 229.858978 54.411697 10.477453
v 229.858749 3.637547 10.333931
v 232.914810 54.411697 10.482012
v 232.914581 3.637547 10.338490
v 229.780151 3.637549 -39.092609
v 232.835968 3.637549 -39.088055
v 229.790848 54.411697 -32.362389
v 232.846680 54.411697 -32.357830
v 229.927124 54.411690 53.317287
v 232.982941 54.411690 53.321857
v 229.937363 3.637545 59.760479
v 232.993195 3.637545 59.765034
v 229.892502 3.369215 31.933601
v 231.885345 3.637463 34.362881
v 229.893051 54.411697 31.897373
v 232.948883 54.411697 31.901932
v 229.824921 54.411697 -10.942464
v 232.880737 54.411697 -10.937907
v 229.819443 3.628216 -13.320229
v 232.818985 3.718929 -13.845829
v 229.715973 38.268219 -79.436310
v 230.001846 38.268219 100.299942
v 232.771805 38.268219 -79.431747
v 233.057678 38.268219 100.304504
v 232.914734 38.268219 10.436378
v 229.858917 38.268219 10.431820
v 229.787445 38.268219 -34.502243
v 232.843277 38.268219 -34.497684
v 232.986206 38.268219 55.370441
v 229.930374 38.268219 55.365879
v 229.894638 38.308807 33.565681
v 234.019043 38.268303 33.865314
v 229.823181 38.277550 -13.094317
v 232.878998 38.301193 -12.722433
v 110.554810 54.411697 -26.790874
v 229.111298 54.411697 -26.614046
v 88.684952 3.637548 -26.823486
v 229.111298 3.637549 -26.614040
v 110.550262 54.411697 -29.656502
v 229.106750 54.411697 -29.479675
v 88.680389 3.637549 -29.689117
v 229.106750 3.637549 -29.479671
v 169.833054 54.411697 -26.702459
v 158.898132 3.637548 -26.718763
v 169.828491 54.411697 -29.568089
v 158.893585 3.637549 -29.584393
v 199.472183 54.411697 -26.658255
v 199.467621 54.411697 -29.523882
v 194.399170 3.637549 -26.666403
v 194.362274 3.637549 -29.532032
v 214.291733 54.411697 -26.636150
v 214.287170 54.411697 -29.501780
v 211.557999 3.637549 -26.640223
v 211.553452 3.637549 -29.505852
v 95.593369 19.676474 -26.813185
v 229.111298 19.676476 -26.614042
v 95.588821 19.676474 -29.678814
v 229.106750 19.676476 -29.479671
v 162.347778 19.676474 -29.579243
v 162.352325 19.676474 -26.713614
v 194.207855 38.192986 -29.529459
v 194.180084 38.192986 -26.663830
v 211.549042 38.192986 -29.504564
v 211.553589 38.192986 -26.638935
vt 0.630291 0.538893
vt 0.600658 0.538170
vt 0.630291 0.493033
vt 0.591716 0.493704
vt 0.627994 0.634481
vt 0.589418 0.679611
vt 0.598361 0.635159
vt 0.627994 0.680341
vt 0.554274 0.687574
vt 0.583907 0.648632
vt 0.583907 0.688297
vt 0.546544 0.649135
vt 0.302893 0.676550
vt 0.339683 0.636889
vt 0.340260 0.676550
vt 0.310064 0.638011
vt 0.605790 0.569055
vt 0.598833 0.568966
vt 0.605790 0.538982
vt 0.302893 0.558785
vt 0.341486 0.636889
vt 0.302893 0.636395
vt 0.598832 0.538984
vt 0.591716 0.568966
vt 0.591716 0.538893
vt 0.598832 0.538893
vt 0.341486 0.559280
vt 0.598832 0.569057
vt 0.589418 0.571149
vt 0.626799 0.634002
vt 0.589418 0.634481
vt 0.626799 0.570670
vt 0.546544 0.493033
vt 0.585613 0.500126
vt 0.546544 0.500090
vt 0.591716 0.493075
vt 0.546544 0.570628
vt 0.585613 0.563446
vt 0.591716 0.570670
vt 0.546544 0.648632
vt 0.583607 0.641258
vt 0.589418 0.648265
vt 0.583607 0.577938
vt 0.589418 0.570670
vt 0.546544 0.571037
vt 0.546544 0.578255
vt 0.546544 0.563410
vt 0.546544 0.641575
vt 0.000000 0.558785
vt 0.099902 0.878986
vt 0.000000 0.905248
vt 0.099902 0.584629
vt 0.341543 0.000034
vt 0.623531 0.008280
vt 0.347920 0.008313
vt 0.631719 0.000000
vt 0.935808 0.002627
vt 0.835138 0.504951
vt 0.835136 0.000000
vt 0.442208 0.493033
vt 0.341543 0.965999
vt 0.341544 0.495421
vt 0.442208 0.997984
vt 0.013675 0.541084
vt 0.127527 0.558785
vt 0.000000 0.558784
vt 0.935808 0.473205
vt 0.605604 0.680341
vt 0.605604 0.724658
vt 0.589418 0.686953
vt 0.592871 0.729859
vt 0.127527 0.541084
vt 0.546544 0.493033
vt 0.504723 0.622465
vt 0.442208 0.519255
vt 0.504723 0.696462
vt 0.442208 0.813612
vt 0.546544 0.839497
vt 0.546544 0.696395
vt 0.302893 0.558785
vt 0.302893 0.875663
vt 0.202379 0.577315
vt 0.202379 0.856898
vt 0.202379 0.857156
vt 0.140978 0.748330
vt 0.202379 0.577573
vt 0.099902 0.875663
vt 0.099902 0.558785
vt 0.140978 0.674333
vt 0.099902 0.674276
vt 0.099902 0.748274
vt 0.546544 0.622397
vt 0.733431 0.000000
vt 0.631719 0.517625
vt 0.631721 0.024633
vt 0.733431 0.534413
vt 0.835136 0.000000
vt 0.835136 0.558778
vt 0.733431 0.558777
vt 0.341543 0.558785
vt 0.200473 0.541084
vt 0.326053 0.541084
vt 0.733432 0.041421
vt 0.200473 0.558784
vt 0.307627 0.750548
vt 0.321353 0.676550
vt 0.321353 0.750548
vt 0.307627 0.676550
vt 0.000000 0.000000
vt 0.013675 0.036126
vt 0.341543 0.493033
vt 0.623528 0.478866
vt 0.631719 0.493000
vt 0.341543 0.000000
vt 0.326053 0.036127
vt 0.347917 0.478898
vt 0.605604 0.723244
vt 0.609057 0.680341
vt 0.621791 0.729852
vt 0.621791 0.685539
vt 0.971617 0.806967
vt 0.911145 0.806951
vt 0.911145 0.779376
vt 0.939213 0.779380
vt 0.882763 0.751803
vt 0.850359 0.779380
vt 0.822291 0.779376
vt 0.822291 0.751801
vt 0.326086 0.839515
vt 0.326086 0.862795
vt 0.321353 0.862795
vt 0.321353 0.839515
vt 0.626523 0.708791
vt 0.626523 0.680341
vt 0.631256 0.680342
vt 0.631256 0.708792
vt 0.330819 0.740069
vt 0.330819 0.676550
vt 0.335552 0.676557
vt 0.335552 0.740076
vt 0.588642 0.758933
vt 0.588642 0.869234
vt 0.583909 0.869234
vt 0.583909 0.758933
vt 0.588640 0.702546
vt 0.583907 0.702546
vt 0.326086 0.676550
vt 0.326086 0.769673
vt 0.321353 0.769673
vt 0.321353 0.676550
vt 0.850359 0.569634
vt 0.850359 0.674507
vt 0.822291 0.669077
vt 0.822291 0.558778
vt 0.939213 0.989126
vt 0.911145 0.999975
vt 0.911145 0.889676
vt 0.939213 0.884253
vt 0.588642 0.676208
vt 0.583909 0.676208
vt 0.326086 0.816234
vt 0.321353 0.816234
vt 0.882763 0.725130
vt 0.822291 0.725463
vt 0.911145 0.833290
vt 0.971617 0.833639
vt 0.588642 0.648632
vt 0.583909 0.648632
vt 1.000000 0.825949
vt 1.000000 0.802669
vt 0.911145 0.732828
vt 0.911145 0.756109
vt 1.000000 0.872510
vt 0.911145 0.686268
vt 1.000000 0.965631
vt 0.911145 0.593146
vt 0.330819 0.769398
vt 0.335552 0.769406
vt 0.626523 0.770405
vt 0.631256 0.770406
vt 0.911145 0.779389
vt 1.000000 0.779389
vt 0.692570 0.648981
vt 0.632187 0.641588
vt 0.632187 0.558777
vt 0.692570 0.573697
vt 0.794062 0.799833
vt 0.794062 0.875117
vt 0.733507 0.890022
vt 0.733507 0.807211
vt 0.725452 0.630554
vt 0.725452 0.558777
vt 0.730185 0.558777
vt 0.730185 0.630554
vt 0.621791 0.742168
vt 0.621791 0.680341
vt 0.626523 0.680347
vt 0.626523 0.742174
vt 0.335552 0.705377
vt 0.335552 0.676550
vt 0.340284 0.676556
vt 0.340284 0.705383
vt 0.720720 0.641590
vt 0.720720 0.558777
vt 0.725452 0.558777
vt 0.725452 0.641589
vt 0.720718 0.760591
vt 0.720720 0.724402
vt 0.725452 0.724402
vt 0.723799 0.764656
vt 0.725452 0.738218
vt 0.725452 0.702330
vt 0.730185 0.702330
vt 0.730185 0.738218
vt 0.692570 0.874833
vt 0.632187 0.890021
vt 0.632187 0.807210
vt 0.692570 0.799549
vt 0.794063 0.573980
vt 0.794062 0.649264
vt 0.733507 0.641589
vt 0.733507 0.558778
vt 0.725452 0.845883
vt 0.725452 0.774107
vt 0.730185 0.774107
vt 0.730185 0.845883
vt 0.720718 0.684770
vt 0.725364 0.683882
vt 0.720720 0.890026
vt 0.720720 0.807214
vt 0.725452 0.807214
vt 0.725452 0.890026
vt 0.725452 0.666442
vt 0.730185 0.666442
vt 0.794139 0.763808
vt 0.733431 0.764645
vt 0.692640 0.685506
vt 0.631719 0.688210
vt 0.632171 0.764030
vt 0.692586 0.763681
vt 0.794120 0.685747
vt 0.733645 0.683880
vt 0.822291 0.652842
vt 0.822291 0.688730
vt 0.720718 0.795978
vt 0.720718 0.760090
vt 0.822291 0.724618
vt 0.822291 0.760505
vt 0.794062 0.724548
vt 0.720718 0.724202
vt 0.692570 0.724265
vt 0.720718 0.688315
vt 0.720718 0.652427
vt 0.822291 0.796393
vt 0.822291 0.581067
vt 0.720718 0.867753
vt 0.335552 0.767215
vt 0.340284 0.767221
vt 0.621791 0.770989
vt 0.626523 0.770995
vt 0.822291 0.868168
vt 0.720718 0.580652
vt 0.939528 0.751786
vt 1.000000 0.751801
vt 1.000000 0.779376
vt 0.971932 0.779372
vt 0.882763 0.972414
vt 0.850359 0.999991
vt 0.822291 0.999987
vt 0.822291 0.972413
vt 0.326086 0.699830
vt 0.326086 0.676550
vt 0.330819 0.676550
vt 0.330819 0.699830
vt 0.546544 0.716747
vt 0.546544 0.688297
vt 0.551277 0.688298
vt 0.551277 0.716748
vt 0.631532 0.570962
vt 0.631532 0.634481
vt 0.626799 0.634474
vt 0.626799 0.570955
vt 0.307627 0.786851
vt 0.307627 0.897151
vt 0.302894 0.897151
vt 0.302894 0.786850
vt 0.307626 0.731080
vt 0.302893 0.731131
vt 0.326086 0.862795
vt 0.326086 0.769673
vt 0.330819 0.769673
vt 0.330819 0.862795
vt 0.850359 0.790245
vt 0.850359 0.895118
vt 0.822291 0.889688
vt 0.822291 0.779389
vt 0.971932 0.569626
vt 1.000000 0.558778
vt 1.000000 0.669077
vt 0.971932 0.674499
vt 0.307627 0.704125
vt 0.302894 0.704125
vt 0.326086 0.723111
vt 0.330819 0.723111
vt 0.882763 0.945173
vt 0.822291 0.945407
vt 1.000000 0.724846
vt 0.939528 0.724494
vt 0.307627 0.676550
vt 0.302894 0.676550
vt 0.911145 0.732803
vt 0.911145 0.756084
vt 0.911145 0.953439
vt 0.911145 0.976720
vt 0.911145 0.686243
vt 0.911145 0.906879
vt 0.911145 0.593121
vt 0.911145 0.813757
vt 0.631532 0.541632
vt 0.626799 0.541625
vt 0.546544 0.778361
vt 0.551277 0.778362
vt 0.911145 1.000000
vt 0.911145 0.779364
vn -0.0338 -0.0000 -0.9994
vn 0.0338 -0.0000 0.9994
vn -0.0206 -0.9998 0.0006
vn -0.0158 0.9999 0.0004
vn 0.0124 -0.9999 -0.0004
vn 0.9996 -0.0000 -0.0282
vn 0.9996 0.0000 -0.0283
vn -0.9740 -0.2248 0.0276
vn -0.9740 -0.2247 0.0276
vn 0.9654 0.2606 -0.0017
vn -0.0000 1.0000 0.0000
vn -0.0013 -0.1886 0.9820
vn 0.0012 -0.1897 -0.9818
vn 0.0013 -0.1892 -0.9819
vn 0.0000 -1.0000 -0.0000
vn -0.0012 -0.1892 0.9819
vn 0.0013 -0.0000 -1.0000
vn -0.9102 0.4141 0.0016
vn -0.9996 -0.0276 0.0018
vn 0.9435 -0.3313 -0.0017
vn 0.0012 0.2594 -0.9658
vn -0.0013 0.2604 0.9655
vn 0.0013 0.2599 -0.9656
vn -0.0012 0.2599 0.9656
vn -0.0013 -0.0000 1.0000
vn -0.0015 -0.0000 1.0000
vn 0.0015 0.0000 -1.0000
vn 1.0000 0.0000 -0.0016
vn -0.9184 0.3956 0.0015
vn 0.0015 0.0001 -1.0000
vn -0.0015 -0.0001 1.0000
vn -0.0015 0.0001 1.0000
vn 0.0015 -0.0001 -1.0000
vn 0.0014 -0.0000 -1.0000
vn -0.0014 0.0000 1.0000
vn -1.0000 -0.0000 0.0016
vn -0.0014 0.2486 0.9686
vn 0.0014 0.2537 -0.9673
vn 0.0553 -0.9985 -0.0047
vn 0.0151 -0.9999 0.0014
vn 0.9995 -0.0308 -0.0016
vn 0.0512 -0.9987 0.0039
vn 0.0148 -0.9999 -0.0015
vn 1.0000 -0.0009 -0.0004
vn -1.0000 -0.0001 0.0016
vn 0.9992 0.0316 -0.0254
vn 0.9991 0.0361 0.0232
usemtl Material
s off
f 1/1/1 2/2/1 3/3/1
f 3/3/1 2/2/1 4/4/1
f 5/5/2 6/6/2 7/7/2
f 8/8/2 6/6/2 5/5/2
f 9/9/1 10/10/1 11/11/1
f 12/12/1 10/10/1 9/9/1
f 13/13/2 14/14/2 15/15/2
f 16/16/2 14/14/2 13/13/2
f 1/17/3 14/18/3 2/19/3
f 3/20/4 6/21/4 8/22/4
f 5/23/3 9/24/3 11/25/3
f 2/19/3 14/18/3 16/26/3
f 4/27/4 6/21/4 3/20/4
f 7/28/3 9/24/3 5/23/3
f 10/29/5 13/30/5 15/31/5
f 12/32/5 13/30/5 10/29/5
f 1/33/6 15/34/6 14/35/6
f 3/36/6 15/34/6 1/33/6
f 5/37/7 10/38/7 8/39/7
f 8/39/7 10/38/7 3/36/7
f 2/40/8 13/41/8 4/42/8
f 4/42/9 12/43/9 6/44/9
f 7/45/8 12/43/8 9/46/8
f 6/44/8 12/43/8 7/45/8
f 11/47/7 10/38/7 5/37/7
f 12/43/9 4/42/9 13/41/9
f 15/34/7 3/36/7 10/38/7
f 16/48/8 13/41/8 2/40/8
f 17/49/10 18/50/10 19/51/10
f 20/52/10 18/50/10 17/49/10
f 21/53/11 22/54/11 23/55/11
f 24/56/11 22/54/11 21/53/11
f 25/57/12 26/58/12 27/59/12
f 28/60/13 22/61/13 29/62/13
f 30/63/14 22/61/14 28/60/14
f 26/64/15 31/65/15 32/66/15
f 23/67/16 26/58/16 25/57/16
f 33/68/17 34/69/17 35/70/17
f 35/70/17 34/69/17 36/71/17
f 37/72/15 31/65/15 26/64/15
f 32/73/18 38/74/18 21/75/18
f 21/75/18 34/76/18 24/77/18
f 39/78/18 34/76/18 33/79/18
f 24/77/18 34/76/18 39/78/18
f 27/80/19 28/81/19 25/82/19
f 25/82/19 28/81/19 29/83/19
f 22/84/20 36/85/20 23/86/20
f 30/87/20 36/85/20 22/84/20
f 26/88/20 40/89/20 37/90/20
f 23/86/20 40/89/20 26/88/20
f 35/91/20 36/85/20 30/87/20
f 34/76/18 21/75/18 38/74/18
f 31/92/18 38/74/18 32/73/18
f 40/89/20 23/86/20 36/85/20
f 17/93/21 21/94/21 20/95/21
f 18/96/22 39/97/22 19/98/22
f 32/99/23 21/94/23 17/93/23
f 39/100/15 35/101/15 30/102/15
f 24/103/24 39/97/24 18/96/24
f 33/104/15 35/101/15 39/100/15
f 34/105/15 40/106/15 36/107/15
f 38/108/15 40/106/15 34/105/15
f 17/109/15 27/110/15 32/66/15
f 20/111/11 29/112/11 18/113/11
f 19/114/15 28/115/15 17/109/15
f 18/113/11 29/112/11 24/56/11
f 32/66/15 27/110/15 26/64/15
f 21/53/11 25/116/11 20/111/11
f 39/100/15 28/115/15 19/114/15
f 24/56/11 29/112/11 22/54/11
f 27/110/15 17/109/15 28/115/15
f 29/112/11 20/111/11 25/116/11
f 30/102/15 28/115/15 39/100/15
f 23/55/11 25/116/11 21/53/11
f 37/117/25 40/118/25 31/119/25
f 31/119/25 40/118/25 38/120/25
f 70/121/26 59/122/26 44/123/26 62/124/26
f 69/125/27 64/126/27 48/127/27 60/128/27
f 57/129/11 42/130/11 46/131/11 58/132/11
f 62/133/28 44/134/28 48/135/28 64/136/28
f 61/137/29 41/138/29 45/139/29 63/140/29
f 50/141/15 43/142/15 47/143/15 52/144/15
f 55/145/15 50/141/15 52/144/15 56/146/15
f 41/147/11 49/148/11 51/149/11 45/150/11
f 63/151/27 65/152/27 52/153/27 47/154/27
f 61/155/26 43/156/26 50/157/26 66/158/26
f 59/159/15 55/145/15 56/146/15 60/160/15
f 49/148/11 53/161/11 54/162/11 51/149/11
f 65/152/30 67/163/30 56/164/30 52/153/30
f 66/158/31 50/157/31 55/165/31 68/166/31
f 44/167/15 59/159/15 60/160/15 48/168/15
f 53/161/11 57/129/11 58/132/11 54/162/11
f 53/169/32 68/166/32 70/121/32 57/170/32
f 54/171/33 58/172/33 69/125/33 67/163/33
f 49/173/26 66/158/26 68/166/26 53/169/26
f 51/174/27 54/171/27 67/163/27 65/152/27
f 41/175/26 61/155/26 66/158/26 49/173/26
f 45/176/27 51/174/27 65/152/27 63/151/27
f 43/177/29 61/137/29 63/140/29 47/178/29
f 42/179/28 62/133/28 64/136/28 46/180/28
f 58/172/34 46/181/34 64/126/34 69/125/34
f 57/170/35 70/121/35 62/124/35 42/182/35
f 108/183/36 89/184/36 74/185/36 100/186/36
f 107/187/28 102/188/28 78/189/28 90/190/28
f 87/191/11 72/192/11 76/193/11 88/194/11
f 100/195/37 74/196/37 78/197/37 102/198/37
f 99/199/38 71/200/38 75/201/38 101/202/38
f 83/203/15 73/204/15 77/205/15 84/206/15
f 91/207/39 80/208/39 82/209/39 92/210/39
f 95/211/11 79/212/11 81/213/11 96/214/11
f 99/215/36 73/216/36 83/217/36 105/218/36
f 101/219/28 106/220/28 84/221/28 77/222/28
f 71/223/11 85/224/11 86/225/11 75/226/11
f 97/227/40 83/203/40 84/206/40 98/228/40
f 74/229/15 89/230/15 90/231/15 78/232/15
f 93/233/11 87/191/11 88/194/11 94/234/11
f 110/235/41 107/187/41 90/190/41 92/236/41
f 109/237/36 91/238/36 89/184/36 108/183/36
f 79/212/11 93/233/11 94/234/11 81/213/11
f 89/230/42 91/207/42 92/210/42 90/231/42
f 80/208/43 97/227/43 98/228/43 82/209/43
f 105/218/36 83/217/36 97/239/36 111/240/36
f 106/220/44 112/241/44 98/242/44 84/221/44
f 85/224/11 95/211/11 96/214/11 86/225/11
f 86/243/28 96/244/28 112/241/28 106/220/28
f 85/245/45 105/218/45 111/240/45 95/246/45
f 81/247/46 94/248/46 110/235/46 103/249/46
f 79/250/36 104/251/36 109/237/36 93/252/36
f 93/252/36 109/237/36 108/183/36 87/253/36
f 94/248/47 88/254/47 107/187/47 110/235/47
f 75/255/28 86/243/28 106/220/28 101/219/28
f 71/256/36 99/215/36 105/218/36 85/245/36
f 95/246/36 111/240/36 104/251/36 79/250/36
f 96/244/28 81/247/28 103/249/28 112/241/28
f 73/257/38 99/199/38 101/202/38 77/258/38
f 72/259/37 100/195/37 102/198/37 76/260/37
f 88/254/28 76/261/28 102/188/28 107/187/28
f 87/253/36 108/183/36 100/186/36 72/262/36
f 142/263/26 131/264/26 116/265/26 134/266/26
f 141/267/27 136/268/27 120/269/27 132/270/27
f 129/271/11 114/272/11 118/273/11 130/274/11
f 134/275/28 116/276/28 120/277/28 136/278/28
f 133/279/29 113/280/29 117/281/29 135/282/29
f 122/283/15 115/284/15 119/285/15 124/286/15
f 127/287/15 122/283/15 124/286/15 128/288/15
f 113/289/11 121/290/11 123/291/11 117/292/11
f 135/293/27 137/294/27 124/295/27 119/296/27
f 133/297/26 115/298/26 122/299/26 138/300/26
f 131/301/15 127/287/15 128/288/15 132/302/15
f 121/290/11 125/303/11 126/304/11 123/291/11
f 137/294/30 139/305/30 128/306/30 124/295/30
f 138/300/31 122/299/31 127/307/31 140/308/31
f 116/309/15 131/301/15 132/302/15 120/310/15
f 125/303/11 129/271/11 130/274/11 126/304/11
f 125/311/32 140/308/32 142/263/32 129/312/32
f 126/313/33 130/314/33 141/267/33 139/305/33
f 121/315/32 138/300/32 140/308/32 125/311/32
f 123/316/33 126/313/33 139/305/33 137/294/33
f 113/317/26 133/297/26 138/300/26 121/315/26
f 117/318/27 123/316/27 137/294/27 135/293/27
f 115/319/29 133/279/29 135/282/29 119/320/29
f 114/321/28 134/275/28 136/278/28 118/322/28
f 130/314/34 118/323/34 136/268/34 141/267/34
f 129/312/35 142/263/35 134/266/35 114/324/35
