# Blender 3.3.1
# www.blender.org
mtllib cubo.mtl
g Cubo_Malla
v 195.891556 15.027210 14.056091
v 195.698990 28.287853 14.056091
v 195.891556 15.027210 0.794052
v 195.698990 28.287853 0.794052
v 209.152206 15.219773 14.056091
v 208.959641 28.480415 14.056091
v 209.152206 15.219773 0.794052
v 208.959641 28.480415 0.794052
vn -0.9999 -0.0145 -0.0000
vn -0.0000 -0.0000 -1.0000
vn 0.9999 0.0145 -0.0000
vn -0.0000 -0.0000 1.0000
vn 0.0145 -0.9999 -0.0000
vn -0.0145 0.9999 -0.0000
vt 0.375000 0.000000
vt 0.375000 1.000000
vt 0.125000 0.750000
vt 0.625000 0.000000
vt 0.625000 1.000000
vt 0.875000 0.750000
vt 0.125000 0.500000
vt 0.375000 0.250000
vt 0.625000 0.250000
vt 0.875000 0.500000
vt 0.375000 0.750000
vt 0.625000 0.750000
vt 0.375000 0.500000
vt 0.625000 0.500000
s 0
g off
f 2/4/1 3/8/1 1/1/1
f 4/9/2 7/13/2 3/8/2
f 8/14/3 5/11/3 7/13/3
f 6/12/4 1/2/4 5/11/4
f 7/13/5 1/3/5 3/7/5
f 4/10/6 6/12/6 8/14/6
f 2/4/1 4/9/1 3/8/1
f 4/9/2 8/14/2 7/13/2
f 8/14/3 6/12/3 5/11/3
f 6/12/4 2/5/4 1/2/4
f 7/13/5 5/11/5 1/3/5
f 4/10/6 2/6/6 6/12/6
