# Blender 3.3.1
# www.blender.org
mtllib MarcoPrincipal.mtl
g Marco1_Malla
v 231.211716 3.559510 33.897003
v 231.211731 38.282314 33.897003
v 229.418411 3.559510 33.898041
v 229.418427 38.282318 33.898041
v 231.184021 3.559510 -14.039310
v 231.184036 38.282314 -14.039310
v 229.390717 3.559510 -14.038272
v 229.390717 38.282318 -14.038272
v 229.415619 3.680274 29.080982
v 231.208939 3.680274 29.079945
v 229.393631 3.680274 -8.986537
v 231.186935 3.680274 -8.987575
v 229.393646 36.649696 -8.986537
v 231.186951 36.649696 -8.987575
v 229.393631 24.339905 -8.986537
v 231.186951 36.639973 -8.987575
v 229.415634 34.793064 29.080982
v 229.415634 36.649696 29.080982
v 231.208954 36.649696 29.079945
v 229.393631 3.659665 -8.986537
vn 0.0006 -0.0000 1.0000
vn -1.0000 -0.0000 0.0006
vn -0.0006 -0.0000 -1.0000
vn 1.0000 -0.0000 -0.0006
vn -0.0000 -1.0000 -0.0000
vn -0.0000 1.0000 -0.0000
vt -0.027907 0.007575
vt 0.000000 0.000000
vt 0.004244 0.000022
vt 0.004244 0.999977
vt 0.000000 0.000000
vt 0.000021 0.068180
vt 0.000000 0.000000
vt 0.103397 0.000032
vt 0.000000 0.000000
vt 0.103397 0.999968
vt 0.972093 0.007574
vt 0.000000 0.000000
vt 0.999979 0.068180
vt 0.972093 0.964426
vt 0.000000 0.000000
vt 0.000033 0.000033
vt 0.000033 0.999967
vt 0.999979 0.000021
vt 0.000000 0.000000
vt 0.126013 0.968376
vt 0.000032 0.003510
vt 0.115798 0.000091
vt 0.008373 0.000092
vt 0.072582 0.010902
vt 0.110561 0.003500
vt 0.005770 0.968376
vt 0.126013 0.053272
vt 0.124757 0.991450
vt 0.866708 0.010902
vt 0.005770 0.053272
vt 0.124757 0.999972
vt 0.000000 0.000000
vt 0.108434 0.952950
vt 0.894599 0.045729
vt -0.047846 0.991267
vt 0.000000 0.000000
vt 0.894599 0.011856
vt -0.048787 0.999966
vt 0.017431 0.991450
vt 0.866709 0.919168
vt -0.046468 0.999972
vt 0.000000 0.000000
vt 0.100506 0.045728
vt 0.000032 0.952951
vt 0.115798 0.999909
vt 0.000000 0.000000
vt 0.110564 0.952959
vt 0.100506 0.011856
vt 0.008373 0.999909
vt 0.108430 0.002917
vt 0.067345 0.000028
s 0
g off
g Marco1_Door.003
usemtl Door.003
f 2/5/1 3/7/1 1/2/1
f 7/16/2 13/33/2 8/17/2
f 8/19/3 5/12/3 7/16/3
f 5/11/4 12/29/4 1/1/4
f 7/16/5 1/2/5 3/7/5
f 4/9/6 6/15/6 8/19/6
f 14/36/5 18/42/5 13/32/5
f 1/3/4 19/47/4 2/4/4
f 2/6/4 14/37/4 6/13/4
f 13/34/2 4/9/2 8/18/2
f 10/26/6 11/27/6 9/20/6
f 11/28/1 16/41/1 15/39/1
f 3/8/2 18/44/2 9/21/2
f 9/22/3 19/49/3 10/23/3
f 2/5/1 4/9/1 3/7/1
f 7/16/2 20/50/2 13/33/2
f 8/19/3 6/15/3 5/12/3
f 5/11/4 6/14/4 16/40/4
f 12/29/4 10/24/4 1/1/4
f 5/11/4 16/40/4 12/29/4
f 7/16/5 5/12/5 1/2/5
f 4/9/6 2/5/6 6/15/6
f 14/36/5 19/46/5 18/42/5
f 1/3/4 10/25/4 19/47/4
f 2/6/4 19/48/4 14/37/4
f 13/34/2 18/43/2 4/9/2
f 10/26/6 12/30/6 11/27/6
f 11/28/1 12/31/1 16/41/1
f 16/41/1 14/38/1 13/35/1
f 15/39/3 20/51/3 11/28/3
f 16/41/1 13/35/1 15/39/1
f 3/8/2 4/10/2 18/44/2
f 9/22/3 18/45/3 19/49/3
l 17 9
l 18 17
