# Blender 3.3.1
# www.blender.org
mtllib PisoMundo.mtl
g plano_Malla
v 276.651917 1.383725 55.806763
v 469.508667 1.383725 55.806763
v 276.651917 1.383760 -58.449234
v 469.508667 1.383760 -58.449234
v -36.662094 1.383725 55.806763
v 162.395905 1.383725 55.806763
v -36.662094 1.383760 -58.449234
v 162.395905 1.383760 -58.449234
v 162.395905 1.383760 -58.449234
v 276.651917 1.383760 -58.449234
v 162.395905 1.383829 -254.304047
v 276.651917 1.383829 -254.304047
v 162.395905 1.383656 262.914703
v 276.651917 1.383656 262.914703
v 162.395905 1.383725 55.806763
v 276.651917 1.383725 55.806763
v 276.651917 1.383656 262.914703
v 469.508667 1.383656 262.914703
v 276.651917 1.383725 55.806763
v 469.508667 1.383725 55.806763
v 276.651917 1.383760 -58.449234
v 469.508667 1.383760 -58.449234
v 276.651917 1.383829 -254.304047
v 469.508667 1.383829 -254.304047
v -36.662094 1.383760 -58.449234
v 162.395905 1.383760 -58.449234
v -36.662094 1.383829 -254.304047
v 162.395905 1.383829 -254.304047
v -36.662094 1.383656 262.914703
v 162.395905 1.383656 262.914703
v -36.662094 1.383725 55.806763
v 162.395905 1.383725 55.806763
v 162.136383 1.383725 56.066296
v 276.911438 1.383725 56.066296
v 162.136383 1.383760 -58.708771
v 276.911438 1.383760 -58.708771
vn -0.0000 1.0000 -0.0000
vt 0.000000 0.000000
vt 1.000000 0.000000
vt 0.000000 1.000000
vt 1.000000 1.000000
vt 0.030715 0.000000
vt 1.000000 0.000000
vt 0.030715 1.000000
vt 1.000000 1.000000
vt 0.000000 0.000000
vt 1.000000 0.000000
vt 0.000000 1.000000
vt 1.000000 1.000000
vt 0.000000 0.000000
vt 1.000000 0.000000
vt 0.000000 1.000000
vt 1.000000 1.000000
vt 0.000000 0.000000
vt 1.000000 0.000000
vt 0.000000 1.000000
vt 1.000000 1.000000
vt 0.000000 0.000000
vt 1.000000 0.000000
vt 0.000000 1.000000
vt 1.000000 1.000000
vt 0.030715 0.000000
vt 1.000000 0.000000
vt 0.030715 1.000000
vt 1.000000 1.000000
vt 0.030715 0.000000
vt 1.000000 0.000000
vt 0.030715 1.000000
vt 1.000000 1.000000
vt 0.000000 0.000000
vt 1.000000 0.000000
vt 0.000000 1.000000
vt 1.000000 1.000000
s 0
g off
f 2/2/1 3/3/1 1/1/1
f 2/2/1 4/4/1 3/3/1
f 6/6/1 7/7/1 5/5/1
f 6/6/1 8/8/1 7/7/1
f 10/10/1 11/11/1 9/9/1
f 10/10/1 12/12/1 11/11/1
f 14/14/1 15/15/1 13/13/1
f 14/14/1 16/16/1 15/15/1
f 18/18/1 19/19/1 17/17/1
f 18/18/1 20/20/1 19/19/1
f 22/22/1 23/23/1 21/21/1
f 22/22/1 24/24/1 23/23/1
f 26/26/1 27/27/1 25/25/1
f 26/26/1 28/28/1 27/27/1
f 31/31/1 29/29/1 30/30/1
f 31/31/1 30/30/1 32/32/1
f 34/34/1 35/35/1 33/33/1
f 34/34/1 36/36/1 35/35/1
